<svg xmlns="http://www.w3.org/2000/svg" width="69.75" height="69.75" viewBox="0 0 69.75 69.75"><path d="M34.875 1.875c-18.227 0-33 14.773-33 33s14.773 33 33 33 33-14.773 33-33-14.773-33-33-33zm0 67.5c-19.05 0-34.5-15.45-34.5-34.5s15.45-34.5 34.5-34.5 34.5 15.45 34.5 34.5-15.45 34.5-34.5 34.5zm19.05-22.8c-2.026.3-1.198 3.3-1.198 3.3-1.273 1.426-.75 2.023-.75 2.023 2.023 4.5 3.45-2.324 3.45-2.324 1.8-3.898.75-5.176.75-5.176-.45.75-2.25 2.176-2.25 2.176zm-9.75-33.376s.978 3.448 3.376 6.073c0 0 0 3.3 1.5 3.3 0 0 2.7 2.927 3.45 4.802.45.977 4.05.602 4.5 0 1.125-.977.375 1.5-2.023 5.477-2.398 3.976-8.176 2.1-4.273 12.898 0 0-.824 1.352-2.625 1.95 0 0-1.353 1.8-1.65 2.397-.374.602 1.5 2.176-1.425 3.3 0 0-1.574 6.075-4.875 6.228l-3.3.148s.073-3.148-2.477-4.5c0 0-1.5-6.75-2.774-7.273-1.274-.898 1.425-4.2 1.425-4.2s.148-5.925-2.774-7.35c0 0 .525-4.727-.6-4.575-1.125.148-3-.898-3.15-1.273-.147-.375-4.647 1.125-7.8 1.425-3.148.375-6-7.726-6-7.726s2.25-3 .602-4.124c-1.657-1.05 4.718-6.3 4.718-6.3V12.6l2.625-2.625s2.25.824 5.398-.825c3.15-1.648 4.575 0 4.575 0 1.5 3.977 5.625 5.55 6.75 2.625.004-.004 3.3 2.098 6.828 1.422z"/><path fill="none" stroke="#000" stroke-width=".75" stroke-miterlimit="10" d="M34.875 1.875c-18.227 0-33 14.773-33 33s14.773 33 33 33 33-14.773 33-33-14.773-33-33-33zm0 67.5c-19.05 0-34.5-15.45-34.5-34.5s15.45-34.5 34.5-34.5 34.5 15.45 34.5 34.5-15.45 34.5-34.5 34.5zm19.05-22.8c-2.026.3-1.198 3.3-1.198 3.3-1.273 1.426-.75 2.023-.75 2.023 2.023 4.5 3.45-2.324 3.45-2.324 1.8-3.898.75-5.176.75-5.176-.45.75-2.25 2.176-2.25 2.176zm-9.75-33.376s.978 3.448 3.376 6.073c0 0 0 3.3 1.5 3.3 0 0 2.7 2.927 3.45 4.802.45.977 4.05.602 4.5 0 1.125-.977.375 1.5-2.023 5.477-2.398 3.976-8.176 2.1-4.273 12.898 0 0-.824 1.352-2.625 1.95 0 0-1.353 1.8-1.65 2.397-.374.602 1.5 2.176-1.425 3.3 0 0-1.574 6.075-4.875 6.228l-3.3.148s.073-3.148-2.477-4.5c0 0-1.5-6.75-2.774-7.273-1.274-.898 1.425-4.2 1.425-4.2s.148-5.925-2.774-7.35c0 0 .525-4.727-.6-4.575-1.125.148-3-.898-3.15-1.273-.147-.375-4.647 1.125-7.8 1.425-3.148.375-6-7.726-6-7.726s2.25-3 .602-4.124c-1.657-1.05 4.718-6.3 4.718-6.3V12.6l2.625-2.625s2.25.824 5.398-.825c3.15-1.648 4.575 0 4.575 0 1.5 3.977 5.625 5.55 6.75 2.625.004-.004 3.3 2.098 6.828 1.422z"/></svg>