<?xml version="1.0" encoding="utf-8"?>
<!-- Generator: Adobe Illustrator 17.0.0, SVG Export Plug-In . SVG Version: 6.00 Build 0)  -->
<!DOCTYPE svg PUBLIC "-//W3C//DTD SVG 1.1//EN" "http://www.w3.org/Graphics/SVG/1.1/DTD/svg11.dtd">
<svg version="1.1" id="Layer_1" xmlns="http://www.w3.org/2000/svg" xmlns:xlink="http://www.w3.org/1999/xlink" x="0px" y="0px"
	 width="1303.098px" height="1869.689px" viewBox="0 0 1303.098 1869.689" enable-background="new 0 0 1303.098 1869.689"
	 xml:space="preserve">
<path fill="#6B6957" d="M1268.808,1231.093c-67.945,63.513-113.177,103.123-144.117,124.977l-6.48-1.523
	c-8.117,0-13.74,7.257-14.93,15.262c-32.686,18.06-42.325,6.065-50.108-19.917c-1.413-94.564-7.257-189.35-7.257-284.44
	c0-337.37,213.918-469.91,171.733-1015.133c-3.047-51.16-51.187-81.352-48.168,0c5.955,316.265-111.432,509.076-195.83,695.85
	c-57.254,132.538-141.514,141.512-253.085,51.16c-48.14-39.167-102.458-81.352-159.6-123.455
	c-36.12-27.145-54.208-48.14-72.267-87.307c-48.14-99.44-84.398-210.9-39.166-343.438c12.02-42.185-9.085-45.205-33.1,0
	c-30.08,60.273-36.147,108.413-33.128,156.692c3.047,78.332-3.02,120.518-27.145,117.498
	c-114.48-21.104-240.952-240.95-316.265-370.47c-30.08-51.186-48.14-18.086-36.147,21.08
	C63.91,366.697,199.495,523.39,380.285,665.013C600.24,839.737,841.22,1068.585,841.22,1237.27c0,67.087-2.492,120.628-7.92,167.162
	c-6.815,2.936-10.166,9.75-10.166,16.564c0,5.29,2.077,10.61,6.177,14.07l-4.985,28.78c-6.26,1.717-10.165,7.12-10.165,14.376
	c0,4.875,1.745,8.89,4.764,11.578l-7.562,29.97c-9.196,5.955-15.262,16.232-15.262,27.81c0,4.653,0.97,9.085,2.797,13.212
	c-4.764,14.376-10.055,29-15.677,44.124c-17.2-0.083-29.222,12.02-29.222,27.062c0,8.753,4.016,16.453,10.387,21.328
	c-4.32,10.58-8.753,21.633-13.517,32.99c-14.93-0.223-23.904,8.863-23.904,20.884c0,7.146,3.13,13.295,8.31,16.98l-2.16,5.206
	c-4.544,2.908-8.31,6.26-11.58,9.722c-12.436,3.906-25.426,8.227-39.69,13.212c-33.13,11.994-45.122,36.12,0,54.207
	c3.35,1.19,6.48,2.27,9.832,3.462c-0.416,1.716-0.748,3.683-0.748,5.622c0,13.185,6.925,21.744,18.835,23.682
	c0.637,1.08,1.385,2.078,2.27,3.047c0,6.26,11.358,12.105,20.22,12.438c7.59,2.604,17.202,4.653,29.223,6.066
	c2.16,2.908,6.37,5.955,10.692,5.955c1.856,0,4.57-2.078,6.62-4.35c13.406,0.886,29.11,1.302,47.697,1.302h9.307
	c0.443,3.906,3.352,5.955,8.227,5.955c5.095,0,8.004-2.16,8.78-6.37l27.698-1.303c1.385,3.24,6.592,7.672,11.772,7.672
	c3.047,0,9.113-6.066,9.113-9.085v-0.442l31.91-5.4c2.16,1.716,4.652,2.797,7.256,2.797c4.846,0,9.72-3.878,11.356-8.642
	c4.958-2.05,9.417-4.32,13.185-6.703c8.56,0.332,14.626-5.623,14.626-11.69c1.828-4.43,3.24-8.558,4.21-12.546
	c7.368-1.745,14.82-3.573,22.824-5.512c24.126-6.066,39.166-45.232,0-60.273c-0.97-0.333-1.717-0.666-2.687-0.97l10.913-33.765
	c8.005-5.097,12.88-14.07,12.88-25.538c0-5.097-0.97-9.75-2.825-13.74l9.197-44.15c5.318-1.192,8.56-3.99,8.56-8.42
	c0-1.857-2.16-4.765-5.956-6.732l2.937-18.918c3.767-11.163,10.913-25.206,20.774-40.8c10.582-1.302,18.393-9.833,18.393-20.885
	c0-1.717-0.222-3.352-0.554-4.986l40.91-52.018c3.99,1.828,8.642,2.798,13.85,2.798c15.04,0,30.08-11.994,30.08-30.08
	c0-6.15-2.493-12.327-6.62-17.534c41.77-49.775,90.464-107.86,139.16-175.278c18.17-24.015,0.11-57.115-26.952-30.08
	L1268.808,1231.093z"/>
</svg>
