<?xml version="1.0" encoding="utf-8"?>
<!-- Generator: Adobe Illustrator 17.0.0, SVG Export Plug-In . SVG Version: 6.00 Build 0)  -->
<!DOCTYPE svg PUBLIC "-//W3C//DTD SVG 1.1//EN" "http://www.w3.org/Graphics/SVG/1.1/DTD/svg11.dtd">
<svg version="1.1" id="Layer_1" xmlns="http://www.w3.org/2000/svg" xmlns:xlink="http://www.w3.org/1999/xlink" x="0px" y="0px"
	 width="1151.004px" height="2011.061px" viewBox="0 0 1151.004 2011.061" enable-background="new 0 0 1151.004 2011.061"
	 xml:space="preserve">
<path fill="#6B6957" d="M982.077,215.097c-93.36,0-168.995,88.2-168.995,196.933c0,8.93,0.522,17.557,1.498,26.157H492.548
	L367.248,0L0,109.064l8.33,41.454l336.13-99.83L455.3,438.185H271.844c-9.76,0-17.546,9.592-17.546,21.333l234.526,683.242
	c0,11.824,7.877,21.306,17.637,21.306h119.17v721.252c0,0.33,0.09,0.634,0.09,0.965l-213.076,48.896
	c-9.738,0-17.546,9.565-17.546,21.307v33.268c0,11.852,7.878,21.306,17.547,21.306H908.94c9.738,0,17.637-9.563,17.637-21.305
	v-33.268c0-11.742-7.9-21.306-17.637-21.306l-220.976-50.603V1164.18h130.883c9.738,0,17.546-9.592,17.546-21.333L1021.46,603.56
	c74.294-20.672,129.544-98.508,129.544-191.53C1151.164,303.296,1075.438,215.097,982.077,215.097z"/>
</svg>
