<svg xmlns="http://www.w3.org/2000/svg" width="62.641" height="48.691" viewBox="0 0 62.641 48.691"><g fill="#FFF"><path d="M54.418.965c-4 0-7.254 3.23-7.254 7.2 0 3.565 5.704 11.624 7.254 13.75 1.55-2.118 7.254-10.134 7.254-13.75 0-3.97-3.254-7.2-7.254-7.2zm0 22.246c-.152 0-.293-.07-.387-.19-.32-.42-7.83-10.42-7.83-14.85 0-4.5 3.688-8.164 8.223-8.164s8.223 3.665 8.223 8.165c0 4.49-7.515 14.438-7.835 14.855-.093.12-.237.19-.386.19z"/><path d="M54.454 3.94c-1.855 0-3.363 1.51-3.363 3.364 0 1.856 1.51 3.364 3.368 3.364S57.82 9.16 57.82 7.304c0-1.855-1.513-3.363-3.364-3.363zm0 7.657c-2.367 0-4.293-1.925-4.293-4.293 0-2.367 1.93-4.292 4.298-4.292s4.293 1.925 4.293 4.292c0 2.368-1.926 4.293-4.293 4.293zM14.578 9.242c-7.093 0-12.863 5.727-12.863 12.766 0 6.324 10.113 20.617 12.863 24.383 2.754-3.75 12.864-17.964 12.864-24.38 0-7.04-5.77-12.764-12.864-12.764zm0 39.45c-.27 0-.523-.126-.683-.34C13.328 47.6 0 29.866 0 22.007 0 14.027 6.54 7.53 14.578 7.53c8.043 0 14.58 6.497 14.58 14.478 0 7.97-13.33 25.602-13.9 26.344-.16.214-.414.34-.68.34z"/><path d="M14.64 14.52c-3.288 0-5.96 2.675-5.96 5.96 0 3.29 2.676 5.96 5.96 5.96 3.29 0 5.962-2.675 5.962-5.96s-2.672-5.96-5.96-5.96zm0 13.574c-4.198 0-7.612-3.413-7.612-7.613 0-4.194 3.414-7.61 7.613-7.61 4.2 0 7.618 3.416 7.618 7.615 0 4.2-3.414 7.614-7.613 7.614zm.09 20.32l-.218-.602c2.164-.797 4.37-1.594 6.555-2.38 10.433-3.76 22.253-8.02 22.074-10.147-.022-.312-.45-.902-3.01-1.363-5.606-1-6.317-2.07-6.36-2.793-.08-1.278 2.316-2.09 2.797-2.24l17.695-6.487.22.602L36.77 29.5c-.984.31-2.398 1.023-2.363 1.59.02.277.488 1.246 5.832 2.203 2.34.418 3.46 1.035 3.54 1.938.21 2.497-8.41 5.73-22.5 10.81-2.182.788-4.39 1.585-6.553 2.378z"/></g></svg>