<?xml version="1.0" encoding="utf-8"?>
<!-- Generator: Adobe Illustrator 17.0.0, SVG Export Plug-In . SVG Version: 6.00 Build 0)  -->
<!DOCTYPE svg PUBLIC "-//W3C//DTD SVG 1.1//EN" "http://www.w3.org/Graphics/SVG/1.1/DTD/svg11.dtd">
<svg version="1.1" id="Layer_1" xmlns="http://www.w3.org/2000/svg" xmlns:xlink="http://www.w3.org/1999/xlink" x="0px" y="0px"
	 width="619.176px" height="1112.063px" viewBox="0 0 619.176 1112.063" enable-background="new 0 0 619.176 1112.063"
	 xml:space="preserve">
<path fill="#6B6957" d="M290.825,747.314h53.267l18.147,108.233h-89.56L290.825,747.314z M427.894,855.547L377.859,695.4H252.412
	l-48.035,160.146h-26.836v43.164h273.145v-43.164L427.894,855.547L427.894,855.547z"/>
<rect x="242.956" y="661.618" fill="#6B6957" width="144.36" height="30.369"/>
<polygon fill="#6B6957" points="290.825,161.199 332.35,161.199 346.091,428.826 370.748,658.987 260.516,658.987 280.602,428.239 
	"/>
<polygon fill="#6B6957" points="339.627,158.147 280.542,158.147 277.204,140.181 342.979,140.181 "/>
<polygon fill="#6B6957" points="306.852,80.163 313.076,80.163 337.221,108.939 338.274,137.129 281.714,137.129 282.421,108.939 
	"/>
<rect x="306.04" y="0" fill="#6B6957" width="7.923" height="77.397"/>
<path fill="#6B6957" d="M205.851,1062.615c0-54.199,52.966-98.129,118.336-98.129c65.354,0,118.336,43.93,118.336,98.129
	c0,11.456-2.406,22.491-6.811,32.715h-223.05C208.316,1085.062,205.851,1074.071,205.851,1062.615z M550.409,1095.33
	l-99.723-193.568H183.585L87.801,1095.33H0v16.733h619.176v-16.733H550.409z"/>
</svg>
