<svg version="1" xmlns="http://www.w3.org/2000/svg" width="67.265" height="39.668" viewBox="0 0 67.265 39.668"><g fill="#7D7D7D"><path d="M46.898 7.43c0-1.27-.97-2.3-2.164-2.3-1.195.003-2.164 1.03-2.164 2.3 0 .304-.234.554-.523.554s-.523-.246-.523-.554c0-1.883 1.438-3.41 3.207-3.41.963 0 1.826.453 2.41 1.167V4.85c-.002-2.065-1.572-3.737-3.52-3.74-1.94.003-3.514 1.675-3.517 3.74 0 .31-.234.556-.523.556-.285 0-.52-.246-.52-.555C39.057 2.174 41.1 0 43.62 0c1.76 0 3.278 1.06 4.04 2.605C48.42 1.06 49.945 0 51.7 0c2.52 0 4.56 2.172 4.56 4.85 0 .306-.233.556-.522.556-.29 0-.52-.25-.52-.555-.004-2.064-1.574-3.736-3.52-3.74-1.942.004-3.516 1.67-3.52 3.74v.34c.586-.715 1.45-1.17 2.41-1.17 1.77 0 3.207 1.528 3.207 3.41 0 .305-.234.555-.523.555-.29 0-.523-.25-.523-.554-.006-1.273-.97-2.3-2.166-2.3s-2.16 1.03-2.164 2.3v3.78h-1.538V7.43h.016z"/><path d="M3.01 16.887c.517-1.73 1.568-2.66 2.255-2.79v-.546c-.687-.127-1.738-1.06-2.254-2.787C2.28 8.323.88 6.903.005 6.215c.954.054 2.606.312 4.414 1.344C6.39 8.68 7.73 10.6 8.34 11.64l.077.13h52.11c2.758.003 4.414.718 5.398 1.925.988 1.207 1.34 2.98 1.34 5.188 0 1.093-.086 2.292-.22 3.566-.362 3.55-1.252 6.346-3.022 8.275-1.766 1.93-4.44 3.03-8.488 3.12-2.605.056-4.625.08-7.21.08-1.638 0-3.5-.01-5.888-.024-1.766-.007-3.398-.12-4.918-.31l-.17-.02-.086.155c-2.28 4.133-5.922 5.43-7.598 5.82-.25.06-.453.094-.6.12l.054-8.335-.16-.07C19.246 26.9 16.082 18.3 8.75 15.707l-.196-.07-.11.187c-.55.977-1.933 3.078-4.03 4.27C2.604 21.12.957 21.384 0 21.438c.875-.692 2.277-2.114 3.01-4.55z"/></g></svg>