<svg version="1" xmlns="http://www.w3.org/2000/svg" width="67.473" height="71.253" viewBox="0 0 67.473 71.253"><g fill="#7D7D7D"><path d="M46.067 6.757c.898-2.246 1.012-3.37 1.012-3.37s-.123-.45 1.342 0l1.8 2.245s5.618 1.683 10.9 10.45c2.593 4.304 4.452 9.417 5.448 14.116C65 20.073 62.197 10.534 59.213 5.632c-4.72-7.754-16.63-7.078-20.785-.563-4.156 6.52-.672 10.56 3.102 18.09.077.15.15.307.23.463.108-7.67 2.663-15.516 4.307-16.867z"/><path d="M66.99 36.707c.058 2.168-.153 4.043-.66 5.422-1.91 5.186-5.505 6.197-5.505 6.197s-1.348-3.258-1.574-4.383c-.224-1.125 4.72-4.492 3.82-10-.896-5.504-.56-13.707-4.717-17.976C54.193 11.7 47.9 7.99 47.9 7.99s-5.055 2.922-4.266 11.348c.785 8.426 2.695 19.21 9.328 24.156.113 3.258-2.024 4.832-2.024 4.832s-1.613-2.336-3.512-5.688c.375 3.578 1.047 11.914.586 16.477-.566 5.617 2.027 12.137 8.992 12.137 6.965 0 10.113-8.652 10.45-23.598.078-3.48-.098-7.196-.465-10.95zM21.403 6.757c-.898-2.246-1.01-3.37-1.01-3.37s.12-.45-1.345 0l-1.8 2.245s-5.618 1.683-10.9 10.45C3.756 20.386 1.898 25.5.898 30.198 2.47 20.073 5.27 10.534 8.255 5.63c4.718-7.754 16.628-7.078 20.784-.563 4.156 6.52.672 10.562-3.1 18.09-.08.15-.154.308-.232.464-.105-7.67-2.66-15.515-4.305-16.866z"/><path d="M.482 36.707c-.06 2.168.152 4.043.66 5.422 1.91 5.186 5.504 6.197 5.504 6.197s1.347-3.258 1.574-4.383c.223-1.125-4.72-4.492-3.82-10 .898-5.504.562-13.707 4.718-17.976C13.278 11.7 19.57 7.99 19.57 7.99s5.056 2.922 4.267 11.348c-.785 8.426-2.695 19.21-9.328 24.156-.115 3.258 2.02 4.832 2.02 4.832s1.615-2.336 3.513-5.688c-.375 3.578-1.047 11.914-.586 16.477.567 5.617-2.027 12.137-8.992 12.137C3.5 71.254.353 62.602.015 47.656c-.072-3.48.1-7.196.467-10.95z"/></g></svg>