<svg xmlns="http://www.w3.org/2000/svg" width="69.854" height="33.738" viewBox="50.028 26.938 69.854 33.738"><g fill="#E2E2E2"><path d="M75.71 42.07l-3.41 9.744 4.857-1.957L86.5 37.72l13.992-5.636c.634-.255 1.093-.725 1.373-1.382.288-.665.298-1.324.044-1.952l-.048-.118c-.256-.634-.707-1.07-1.36-1.317-.644-.242-1.29-.238-1.924.017L84.586 32.97l-24.914-6.032-4.857 1.956 18.98 8.422-10.558 4.253-9.894-2.385-3.315 1.335 12.242 7.064 13.44-5.515zM104.732 54.27v-7.015h-8.897v13.42h24.047V54.27M100.88 36.717h-1.192v3.24h-3.853l-1.953 2.058 1.953 4.076h8.897l1.953-4.075-1.953-2.06h-3.853"/></g></svg>