<?xml version="1.0" encoding="utf-8"?>
<!-- Generator: Adobe Illustrator 17.0.0, SVG Export Plug-In . SVG Version: 6.00 Build 0)  -->
<!DOCTYPE svg PUBLIC "-//W3C//DTD SVG 1.1//EN" "http://www.w3.org/Graphics/SVG/1.1/DTD/svg11.dtd">
<svg version="1.1" id="Layer_1" xmlns="http://www.w3.org/2000/svg" xmlns:xlink="http://www.w3.org/1999/xlink" x="0px" y="0px"
	 width="69.854px" height="33.738px" viewBox="50.028 26.938 69.854 33.738" enable-background="new 50.028 26.938 69.854 33.738"
	 xml:space="preserve">
<g>
	<path fill="#BAAE9F" d="M75.709,42.069l-3.41,9.745l4.858-1.957l9.344-12.136l13.991-5.637c0.634-0.255,1.093-0.725,1.373-1.382
		c0.288-0.665,0.298-1.324,0.044-1.952l-0.047-0.118c-0.256-0.634-0.707-1.07-1.361-1.317c-0.643-0.242-1.289-0.238-1.923,0.017
		l-13.992,5.637l-24.914-6.031l-4.857,1.956l18.98,8.422l-10.558,4.253l-9.894-2.384l-3.315,1.335l12.242,7.064L75.709,42.069z"/>
	<polygon fill="#BAAE9F" points="104.732,54.269 104.732,47.255 95.835,47.255 95.835,54.269 95.835,60.676 119.882,60.676 
		119.882,54.269 	"/>
	<polygon fill="#BAAE9F" points="100.879,36.717 99.688,36.717 99.688,39.956 95.835,39.956 93.882,42.015 95.835,46.091 
		104.732,46.091 106.685,42.015 104.732,39.956 100.879,39.956 	"/>
</g>
</svg>
