<?xml version="1.0" encoding="utf-8"?>
<!-- Generator: Adobe Illustrator 17.0.0, SVG Export Plug-In . SVG Version: 6.00 Build 0)  -->
<!DOCTYPE svg PUBLIC "-//W3C//DTD SVG 1.1//EN" "http://www.w3.org/Graphics/SVG/1.1/DTD/svg11.dtd">
<svg version="1.1" id="Layer_1" xmlns="http://www.w3.org/2000/svg" xmlns:xlink="http://www.w3.org/1999/xlink" x="0px" y="0px"
	 width="138.355px" height="29.6px" viewBox="0 0 138.355 29.6" enable-background="new 0 0 138.355 29.6" xml:space="preserve">
<g>
	<path fill="#5C5E62" d="M16.76,14.95l1.828-1.847c-0.55-0.62-0.885-0.99-1.002-1.107c-0.28-0.28-0.57-0.545-0.86-0.79
		c-1.782-1.43-3.857-2.146-6.224-2.146c-2.754,0-5.11,0.98-7.066,2.936C1.478,13.953,0.5,16.314,0.5,19.08s0.978,5.127,2.936,7.084
		C5.393,28.12,7.748,29.1,10.502,29.1c2.766,0,5.127-0.98,7.084-2.936c0.398-0.398,1.043-1.213,1.934-2.443l-3.64-1.3
		c-0.468,0.563-0.78,0.927-0.93,1.09c-1.23,1.22-2.714,1.83-4.448,1.83c-1.606,0-2.713-0.27-3.322-0.81l9.58-9.58V14.95z
		 M4.72,21.84c-0.317-0.422-0.476-1.342-0.476-2.76c0-1.734,0.612-3.214,1.837-4.438c1.226-1.225,2.7-1.837,4.423-1.837
		c1.43,0,2.35,0.158,2.76,0.475L4.72,21.84z"/>
	<path fill="#5C5E62" d="M10.502,29.6c-2.878,0-5.375-1.037-7.42-3.082S0,21.97,0,19.08s1.037-5.393,3.082-7.438
		s4.542-3.082,7.42-3.082c2.473,0,4.67,0.76,6.536,2.255c0.312,0.262,0.61,0.535,0.902,0.827c0.12,0.12,0.46,0.496,1.022,1.13
		l0.31,0.35l-2.157,2.18l-9.142,9.142c0.474,0.215,1.252,0.395,2.53,0.395c1.61,0,2.95-0.553,4.094-1.686
		c0.135-0.146,0.44-0.502,0.9-1.055l0.222-0.27l4.593,1.644l-0.39,0.54c-0.916,1.263-1.565,2.082-1.986,2.503
		C15.893,28.56,13.39,29.6,10.5,29.6H10.502z M10.502,9.56c-2.604,0-4.862,0.94-6.713,2.79C1.936,14.2,1,16.465,1,19.08
		s0.938,4.88,2.79,6.73c1.85,1.85,4.108,2.79,6.712,2.79c2.615,0,4.88-0.938,6.73-2.79c0.318-0.317,0.818-0.937,1.488-1.844
		l-2.68-0.958c-0.354,0.422-0.596,0.702-0.725,0.842c-1.336,1.324-2.95,1.988-4.814,1.988c-1.746,0-2.94-0.306-3.652-0.935
		l-0.397-0.35l11.453-11.468c-0.356-0.4-0.58-0.645-0.67-0.735c-0.27-0.27-0.547-0.524-0.83-0.762
		c-1.673-1.343-3.66-2.027-5.9-2.027L10.502,9.56z M4.665,22.603l-0.346-0.462c-0.394-0.52-0.577-1.494-0.577-3.06
		c0-1.862,0.667-3.475,1.983-4.79c1.316-1.317,2.922-1.984,4.774-1.984c1.58,0,2.554,0.184,3.066,0.578l0.45,0.348l-9.35,9.372
		L4.665,22.603z M10.502,13.306c-1.6,0-2.93,0.553-4.067,1.69c-1.137,1.138-1.69,2.474-1.69,4.085c0,0.913,0.067,1.5,0.15,1.876
		l7.485-7.5c-0.372-0.08-0.958-0.15-1.878-0.15V13.306z M28.22,14.3c0.763-0.728,1.665-1.09,2.708-1.09
		c1.055,0,1.963,0.37,2.725,1.115c0.762,0.744,1.143,1.638,1.143,2.68v11.62h3.64v-11.76c-0.036-2.098-0.63-3.84-1.785-5.23
		c-1.152-1.388-2.71-2.082-4.665-2.082c-2.297,0-3.826,1.03-4.588,3.094v-2.11H23.74v18.09h3.656v-13.24
		c0.127-0.293,0.403-0.657,0.825-1.09L28.22,14.3z"/>
	<path fill="#5C5E62" d="M38.934,29.125h-4.64v-12.12c0-0.91-0.323-1.67-0.99-2.322c-0.672-0.655-1.45-0.974-2.376-0.974
		c-0.918,0-1.69,0.31-2.362,0.95c-0.386,0.397-0.578,0.67-0.67,0.843v13.62H23.24V10.038h4.654v0.717
		c0.947-1.13,2.315-1.7,4.088-1.7c2.104,0,3.803,0.76,5.052,2.263c1.224,1.472,1.863,3.336,1.9,5.54v12.268V29.125z M35.294,28.125
		h2.64v-11.26c-0.033-1.963-0.594-3.617-1.67-4.91c-1.063-1.28-2.464-1.902-4.28-1.902c-2.085,0-3.432,0.905-4.12,2.767l-0.76,2.056
		c0.173-0.274,0.423-0.58,0.76-0.925c0.867-0.826,1.894-1.24,3.064-1.24c1.185,0,2.22,0.425,3.074,1.26
		c0.858,0.838,1.293,1.86,1.293,3.038v11.118L35.294,28.125z M24.238,28.125h2.656V11.037h-2.656V28.125z M42.705,10.537v3.64h3.252
		v14.448h3.64v-14.45h3.25v-3.638h-3.25V3.752h-3.64v6.785C45.957,10.537,42.705,10.537,42.705,10.537z"/>
	<path fill="#5C5E62" d="M50.096,29.125h-4.64v-14.45h-3.25v-4.638h3.25V3.252h4.64v6.785h3.252v4.64h-3.252V29.125z M46.456,28.125
		h2.64v-14.45h3.252v-2.638h-3.252V4.252h-2.64v6.785h-3.25v2.64h3.25V28.125z M60.723,10.537h-3.64v18.088h3.64v-9.3
		c0.047-1.616,0.662-3.01,1.846-4.183c0.783-0.785,1.84-1.213,3.162-1.283v-3.78c-1.98,0.093-3.65,1.06-5.01,2.9v-2.444
		L60.723,10.537z"/>
	<path fill="#5C5E62" d="M61.223,29.125h-4.64V10.037h4.64v1.59c1.275-1.278,2.78-1.966,4.486-2.046l0.522-0.023v4.778l-0.473,0.024
		c-1.21,0.063-2.137,0.436-2.838,1.137c-1.1,1.09-1.656,2.347-1.7,3.845v9.785L61.223,29.125z M57.583,28.125h2.64v-8.8
		c0.05-1.756,0.72-3.278,1.994-4.538c0.772-0.772,1.786-1.238,3.016-1.387v-2.773c-1.606,0.218-2.954,1.09-4.108,2.65l-0.902,1.222
		v-3.464h-2.64v17.088V28.125z M83.258,23.527c-1.23,1.22-2.707,1.828-4.43,1.828c-1.734,0-3.214-0.612-4.438-1.837
		c-1.225-1.225-1.837-2.698-1.837-4.42c0-1.735,0.612-3.212,1.837-4.43c1.224-1.22,2.704-1.83,4.438-1.83
		c1.723,0,3.2,0.61,4.43,1.83c0.914,0.925,1.477,1.956,1.688,3.093v2.674c-0.212,1.137-0.774,2.17-1.688,3.094V23.527z
		 M78.828,9.097c-2.766,0-5.124,0.975-7.075,2.926s-2.927,4.31-2.927,7.075s0.976,5.124,2.927,7.075s4.31,2.927,7.075,2.927
		c2.32,0,4.36-0.908,6.117-2.725v2.268H88.6V10.537h-3.655v1.266c-1.757-1.805-3.797-2.707-6.117-2.707V9.097z"/>
	<path fill="#5C5E62" d="M78.828,29.6c-2.89,0-5.39-1.034-7.43-3.073c-2.038-2.04-3.072-4.538-3.072-7.43s1.034-5.39,3.073-7.428
		c2.037-2.04,4.537-3.075,7.427-3.075c2.08,0,3.965,0.693,5.617,2.064v-0.624H89.1V29.14h-4.655v-1.62
		C82.793,28.9,80.908,29.6,78.828,29.6z M78.828,9.596c-2.615,0-4.877,0.936-6.722,2.78c-1.845,1.845-2.78,4.106-2.78,6.722
		s0.936,4.877,2.78,6.722c1.845,1.845,4.106,2.78,6.722,2.78c2.2,0,4.083-0.842,5.758-2.572l0.86-0.888v3.003H88.1V11.037h-2.655
		v1.995l-0.858-0.88c-1.675-1.72-3.56-2.556-5.76-2.556L78.828,9.596z M78.828,25.856c-1.864,0-3.476-0.668-4.792-1.984
		s-1.983-2.923-1.983-4.774c0-1.864,0.667-3.474,1.984-4.784c1.316-1.31,2.928-1.974,4.79-1.974c1.852,0,3.46,0.664,4.782,1.973
		c0.983,0.998,1.597,2.127,1.825,3.358l0.008,2.765c-0.237,1.322-0.85,2.45-1.832,3.445C82.287,25.191,80.678,25.856,78.828,25.856
		L78.828,25.856z M78.828,13.34c-1.612,0-2.948,0.55-4.086,1.683c-1.137,1.132-1.69,2.465-1.69,4.075c0,1.6,0.553,2.93,1.69,4.067
		s2.474,1.69,4.085,1.69c1.6,0,2.934-0.55,4.078-1.684c0.834-0.843,1.356-1.796,1.548-2.827l-0.008-2.58
		c-0.183-0.94-0.705-1.895-1.543-2.743C81.762,13.891,80.428,13.341,78.828,13.34L78.828,13.34z M107.885,23.51
		c-1.22,1.22-2.696,1.828-4.43,1.828c-1.735,0-3.214-0.61-4.438-1.828c-1.225-1.22-1.837-2.695-1.837-4.43
		c0-1.723,0.612-3.2,1.837-4.43c1.224-1.23,2.704-1.846,4.438-1.846s3.21,0.615,4.43,1.846c0.926,0.926,1.494,1.957,1.705,3.094
		v2.69C109.38,21.559,108.81,22.584,107.885,23.51z M103.455,9.06c-2.766,0-5.124,0.98-7.075,2.937s-2.927,4.318-2.927,7.084
		s0.976,5.13,2.927,7.086s4.31,2.936,7.075,2.936c2.332,0,4.377-0.907,6.135-2.724v2.25h3.656V0.5h-3.656v11.285
		C107.832,9.969,105.787,9.061,103.455,9.06L103.455,9.06z"/>
	<path fill="#5C5E62" d="M103.455,29.6c-2.89,0-5.39-1.037-7.43-3.082c-2.038-2.046-3.072-4.548-3.072-7.438
		s1.034-5.392,3.073-7.438c2.04-2.045,4.54-3.082,7.43-3.082c2.09,0,3.98,0.698,5.634,2.077V0h4.656v29.125h-4.656v-1.603
		C107.436,28.902,105.545,29.6,103.455,29.6z M103.455,9.56c-2.615,0-4.876,0.94-6.72,2.79c-1.846,1.85-2.782,4.115-2.782,6.73
		s0.936,4.88,2.78,6.73c1.846,1.85,4.107,2.79,6.722,2.79c2.21,0,4.1-0.843,5.775-2.573l0.86-0.888v2.983h2.655V1h-2.656v12.02
		l-0.86-0.887c-1.676-1.73-3.565-2.572-5.776-2.572L103.455,9.56z M103.455,25.838c-1.864,0-3.476-0.664-4.79-1.974
		c-1.318-1.31-1.985-2.92-1.985-4.784c0-1.852,0.667-3.46,1.982-4.782c1.316-1.322,2.928-1.993,4.793-1.993
		c1.864,0,3.474,0.67,4.785,1.994c0.993,0.99,1.613,2.12,1.842,3.352l0.008,2.78c-0.237,1.312-0.857,2.436-1.852,3.43
		c-1.31,1.31-2.92,1.975-4.783,1.975L103.455,25.838z M103.455,13.305c-1.61,0-2.947,0.556-4.084,1.698
		c-1.136,1.144-1.69,2.478-1.69,4.077c0,1.61,0.554,2.943,1.69,4.075c1.138,1.132,2.475,1.683,4.087,1.683
		c1.61,0,2.944-0.55,4.076-1.682c0.85-0.85,1.376-1.796,1.567-2.814l-0.01-2.598c-0.183-0.938-0.71-1.892-1.56-2.74
		C106.399,13.86,105.066,13.304,103.455,13.305L103.455,13.305z"/>
	<g>
		<path fill="#5C5E62" d="M132.512,23.527c-1.23,1.22-2.707,1.828-4.43,1.828c-1.734,0-3.214-0.612-4.438-1.837
			c-1.225-1.225-1.837-2.698-1.837-4.42c0-1.735,0.612-3.212,1.837-4.43c1.224-1.22,2.704-1.83,4.438-1.83
			c1.723,0,3.2,0.61,4.43,1.83c0.914,0.925,1.477,1.956,1.688,3.093v2.674c-0.212,1.137-0.774,2.17-1.688,3.094V23.527z
			 M128.082,9.097c-2.766,0-5.124,0.975-7.075,2.926s-2.927,4.31-2.927,7.075s0.976,5.124,2.927,7.075s4.31,2.927,7.075,2.927
			c2.32,0,4.36-0.908,6.117-2.725v2.268h3.654V10.537H134.2v1.266c-1.76-1.805-3.798-2.707-6.118-2.707V9.097z"/>
		<path fill="#5C5E62" d="M128.082,29.6c-2.89,0-5.39-1.034-7.43-3.073c-2.038-2.04-3.072-4.538-3.072-7.43s1.034-5.39,3.073-7.428
			c2.04-2.04,4.54-3.075,7.43-3.075c2.08,0,3.964,0.693,5.616,2.064v-0.624h4.654V29.14H133.7v-1.62
			C132.047,28.9,130.162,29.6,128.082,29.6z M128.082,9.596c-2.615,0-4.877,0.936-6.722,2.78c-1.845,1.845-2.78,4.106-2.78,6.722
			s0.936,4.877,2.78,6.722c1.845,1.845,4.106,2.78,6.722,2.78c2.2,0,4.083-0.842,5.758-2.572l0.86-0.888v3.003h2.655V11.037H134.7
			v1.995l-0.86-0.88C132.166,10.432,130.282,9.596,128.082,9.596z M128.082,25.856c-1.864,0-3.476-0.668-4.792-1.984
			s-1.983-2.923-1.983-4.774c0-1.864,0.667-3.474,1.984-4.784c1.318-1.31,2.93-1.974,4.793-1.974c1.85,0,3.46,0.664,4.78,1.973
			c0.986,0.998,1.6,2.127,1.828,3.358l0.01,2.765c-0.238,1.322-0.85,2.45-1.833,3.445c-1.324,1.31-2.933,1.975-4.784,1.975H128.082z
			 M128.082,13.34c-1.612,0-2.948,0.55-4.086,1.683c-1.137,1.132-1.69,2.465-1.69,4.075c0,1.6,0.553,2.93,1.69,4.067
			s2.474,1.69,4.085,1.69c1.6,0,2.936-0.55,4.08-1.684c0.834-0.843,1.356-1.796,1.548-2.827l-0.008-2.58
			c-0.184-0.94-0.706-1.895-1.544-2.743c-1.14-1.13-2.474-1.68-4.074-1.68L128.082,13.34z"/>
	</g>
</g>
</svg>
