<?xml version="1.0" encoding="utf-8"?>
<!-- Generator: Adobe Illustrator 17.0.0, SVG Export Plug-In . SVG Version: 6.00 Build 0)  -->
<!DOCTYPE svg PUBLIC "-//W3C//DTD SVG 1.1//EN" "http://www.w3.org/Graphics/SVG/1.1/DTD/svg11.dtd">
<svg version="1.1" id="Layer_1" xmlns="http://www.w3.org/2000/svg" xmlns:xlink="http://www.w3.org/1999/xlink" x="0px" y="0px"
	 width="1142.136px" height="1525.23px" viewBox="0 0 1142.136 1525.23" enable-background="new 0 0 1142.136 1525.23"
	 xml:space="preserve">
<path fill="#6B6957" d="M342.798,33.734h0.06c13.73,0.903,26.347,10.89,35.734,27.997c9.933,18.25,14.9,42.235,13.87,67.47
	c-1.9,48.608-26.488,88.265-54.812,88.265l-2.12-0.106c-13.728-0.93-26.346-10.892-35.733-27.998
	c-10.013-18.434-14.9-42.393-13.93-67.6c1.978-48.477,26.487-88.108,56.93-88.108v0.08H342.798z M334.198,251.014l3.47,0.08
	c42.356,0,77.605-52.727,80.35-120.17c1.354-32.83-5.35-64.36-18.673-88.85C385.395,16.468,365.812,1.54,344.21,0.132L340.68,0
	c-42.355,0-77.604,52.7-80.35,120.14c-1.272,32.805,5.35,64.335,18.674,88.825c13.93,25.765,33.593,40.56,55.195,42.02v0.028
	L334.198,251.014z M135.14,295.37c7.43-9.934,18.573-15.672,30.383-15.672c19.906,0,40.256,16.31,40.78,52.94l4.44,362.84
	c0.243,16.202-3.39,29.27-10.638,39.046c-19.946,26.748-70.356,20.93-71.063-37.267l-4.482-362.84
	C124.36,318.319,127.893,305.144,135.14,295.37L135.14,295.37z M169.784,783.85c18.614,0,36.34-9.376,48.492-25.765
	c12.073-16.203,18.37-37.984,17.968-63.085l-4.4-362.84c-0.687-56.445-33.917-85.93-66.3-85.93c-18.654,0-36.34,9.35-48.533,25.766
	c-12.072,16.15-18.37,37.984-17.967,63.06l4.482,362.84c0.606,56.47,33.795,85.954,66.218,85.954L169.784,783.85L169.784,783.85z
	 M256.997,883.91l-88.082,315.028L18.108,1371.991c-22.066,25.42-24.266,69.513-4.946,98.546
	c10.498,15.804,36.985,51.583,36.985,51.583l198.976-229.816c6.703-7.703,11.75-17.425,14.9-28.422l66.318-237.2l-73.363-142.773
	L256.997,883.91L256.997,883.91z M1137.25,1405.326l-84.55-194.967h37.006c9.49,0,17.04-9.986,17.04-22.444
	c0-6.11-1.88-11.687-4.947-15.778l-92.262-212.923h29.07c9.49,0,17.04-10.094,17.04-22.42c0-6.215-1.938-11.686-5.007-15.777
	l-88.727-204.742c-6.157-13.998-23.58-13.998-29.677,0L841.49,925.774c-3.028,6.96-3.028,15.46,0.08,22.312
	c3.07,6.96,8.6,11.21,14.678,11.21h28.546l-94.32,217.677c-2.948,6.96-2.948,15.46,0.08,22.312c3.03,6.96,8.682,11.21,14.678,11.21
	h36.178l-86.527,199.64c-2.988,6.96-2.927,15.46,0.16,22.42c3.03,6.853,8.6,11.21,14.738,11.21h151.757v75.648h51.077v-75.968
	h152.483c9.388,0,17.04-10.04,17.04-22.392c0.04-6.27-1.94-11.873-4.927-15.805l0.04,0.08L1137.25,1405.326z"/>
<path fill="#6B6957" d="M492.252,1053.724L390.745,853.71c0.95-5.71,1.494-12.14,1.413-19.39l-0.545-183.864l-0.303-138.84
	l98.64,129.092c4.14,5.233,18.37,14.264,23.943,15.406l132.133,27.598L492.252,1053.724L492.252,1053.724z M726.842,536.106
	c-8.278-6.003-18.615-1.966-23.117,8.925l-11.265,27.12c-2.12-0.85-4.18-1.78-6.54-2.283l-143.68-30.095
	c0,0-118.508-152.733-164.94-216.536c-3.432-4.648-8.6-11.608-11.588-15.247c-9.388-11.29-26.507-18.062-43-18.062
	c-34.04,0-68.036,30.2-67.955,89.966l1.21,431.45c0.062,24.384,5.896,43.482,14.9,57.8l163.788,323.102l-122.2,294.124
	c-4.482,10.89-1.494,24.437,6.783,30.387c2.625,1.86,5.45,2.79,8.136,2.79c5.976,0,11.83-4.25,14.9-11.688l113.72-273.672
	l131.77,259.91c10.174,20.24,27.05,31.132,44.212,31.132c10.195,0,20.39-3.852,29.414-11.687
	c24.49-21.41,42.698-42.367,42.698-42.367L513.59,1095.878l168.675-405.95c23.74-1.648,38.72-26.457,41.628-50.947
	c1.575-12.43-0.08-26.03-4.724-37.983l14.333-34.53c4.643-10.892,1.555-24.438-6.662-30.388v0.026H726.842z"/>
</svg>
