<svg version="1" xmlns="http://www.w3.org/2000/svg" width="67.696" height="68.965" viewBox="0 0 67.696 68.965"><path fill="#7D7D7D" d="M12.73 26.496L0 34.293 1.774 41.3l-1.047.505.594 1.05 1.22-.582.53 1.9 7.72 1.534 11.677 6.94 18.19 15.263 12.73 1.055 4.28-7.434 1.084-.723 3.193.164 1.512.793 1.875-.035.982.988 1.383-.56-2.07-2.862-1.71-1.117-.1-4.313-2.468-.03-.03-3.552 1.31-2.86-1.577-2.6-.49.33-.462-.79.656-.33-1.414-2.205h-1.547l-5.328-4.078-1.94-.067-.427-1.382 1.25-.523-1.512-2.17-1.25-.197.524-1.22-1.15.134-2.272-3.13.988-1.31.2-1.383-1.086-1.22.722-1.28 1.414.2-.722-1.746 1.546-1.25.196-1.348 1.152.43.82-.43-.23-2.008-1.117-1.184.136-1.875 2.336-.626-.496-.953-3.55.298-1.414-1.48-1.45.296-.626-3.95-1.148.18-1.004-1.163.922-1.417-2.073-.92.64-1.844-.967-.61.082-.5-.938-.37-2.47 1.97-.663-1.035.664-1.31L35.8.52 34.345 1.73l-2.54-.395L29.48 0l-1.257.84-1.11-.692-1.406 2.07-1.285-.046-4.094 4.957-2.812.466-1.11 4.12.96 1.505.076 2.12-.864.916-.222 2.047-.05 4.293-1.38 2.738"/></svg>