<svg xmlns="http://www.w3.org/2000/svg" width="68.078" height="68.07" viewBox="0 0 68.078 68.07"><g fill="#58BCB4"><path d="M33.168 22.934l.066.046.012.055.063.04-.04.046-.02.05.01.074.04.055.03-.056.066-.05.09.015.008.06-.027.087.007.06.01.07-.014.093.016.085.05-.012.09-.01.07-.013.103-.017.096-.027.008.04-.008.046-.015.09.024.054.067-.02.11.01.004.06-.004.075.013.07-.05.05-.075.087-.06.007-.1-.023-.06-.01-.062.01.046.11.016.09-.008.042-.054.057.035.034.064-.007.05.067-.023.046-.05.04-.066.066-.09.058-.007.043.007.075.04.07.062.016.008-.06.078-.042.08.094.074-.012.067-.023.055-.023.067-.027.1-.012.013.068-.035.05-.1.02-.06.01-.08.022-.06.015-.055.01-.066.06-.033.066-.036.064-.02.075-.023.05-.05.055-.052.032-.004.09.028.053.126-.03.023-.047.03-.097.03-.047.06-.024.08.03.04-.007.06-.004.07-.013.01-.094.04-.03.12.003.076.008.06-.007.05-.055.062-.066.042-.024.054-.003h.117l.04-.014.13.012.08-.013.06-.007.05-.056.07-.01.068-.04.035-.036.008-.06-.034-.036-.07.012-.067-.02.004-.073.012-.05v-.08l.047-.007.058-.008.05-.023.045-.04.02-.06.007-.042-.003-.04.006-.15-.086-.064h-.073l-.082.008-.05.055-.055.08-.036-.044-.062-.047.004-.088-.016-.106-.074-.058.086-.026-.04-.07-.046-.023-.05-.036-.075-.004-.022-.053-.04-.055-.148-.117-.103-.004-.035-.04-.023-.056-.014-.07-.035-.047-.065-.13h-.09l-.016-.038-.04-.056-.06-.004-.05-.008-.002-.063.013-.056-.003-.12-.004-.044.04-.035.034-.062.055-.035-.015-.072.004-.03v-.06l-.003-.027-.004-.02-.043-.078-.07-.004-.063.007-.04.003-.108.048-.06.008-.08.016-.064-.004-.014-.074.004-.09.067-.035-.012-.06.08-.06.007-.13-.01-.045-.077-.016-.09.026-.074.067-.04.003-.044-.024-.054.003.012.055-.007.047-.05.077-.013.07.012.074-.024.064-.07.03.012.07-.02.044.02.078.004.007.023.054-.015.094"/><path d="M33.328 23.88l.016-.075-.067-.07-.035-.032-.035-.04-.05-.038-.055.008-.02.074-.098.047.016-.043.016-.032-.004-.06-.05-.05-.083.07-.074.012-.058-.008-.025.05-.023.048-.008.043.02.044.01.055-.057.022-.047.067-.02.06-.07.02-.057.007-.054.023.012.042.003.04.013.113-.11.036.016.087.01.054.034.043.043-.008.055-.007.055-.04.05-.05.047.035-.04.035-.003.047.006.043-.02.062-.023.04-.05.146-.04.105-.093.088.054.035.024.06.043.02.014.057.04-.01.042-.03.066-.03.05.057.068.02.078-.06.047-.085.047-.058.042-.012.086-.012.008-.045v-.083l.06-.01.05-.052.015-.102.05-.07-.02-.043-.044-.082-.01-.086-.014-.058.008-.058-.01-.063.003-.07.05-.066.067-.043.062-.05-.02-.043m-16.762 13.85l-.066-.068-.2-.014-.222.023-.12-.043-.28.102-.096.112-.04.04-.058.09-.043.092.04.06.106-.028.035-.032.06-.12.067-.098.11-.047.116-.036.094.074.043.064.053-.035.07-.013.078.043.065-.038.175.132.042.09.166-.027.128-.004.055.08.03.104.116.02.117.02.067.074-.036.134-.02.07.06.012.206-.05.2-.086.066-.025.11-.004.16-.006-.09-.184-.18.017-.06-.028-.1-.18-.12.022-.162-.035-.04-.047-.116-.046-.394-.078m1.446.952l-.148-.008.02.125.094.043.14-.02.133-.02.157-.022.234.004.04.054.05-.03.036-.075-.02-.11.058.02.1.028.08-.028.11-.074.104-.032.11-.016.092-.027-.11-.14-.25-.02-.17-.082-.177-.043-.23.046-.16.07-.024.213.094.054.016.097-.074.023-.047.012h-.04l-.134-.005m-.8.097l-.384.03-.05.118.136.04.072.03.06.032.065.047.063-.048.102-.063.032-.063-.05-.067"/><path d="M44.605 25.426l.094.058.036.04-.09.113.024.062-.116.03-.125.045-.127.032-.184.026-.074-.027-.078-.044-.014-.07-.074-.028-.062-.027-.034-.054-.086-.043.242-.026.07.004.086-.063.066-.11.11-.05.194-.06.048-.065.097-.06.048-.026.062-.035.012-.005.086-.027.09-.017.067-.003.012.065-.076.047-.054.093-.06.035-.04.03-.02.06h-.003l-.047.01-.093.026.008.06zm-1.777 2.226l-.055.086-.07-.008-.078-.027-.05.03-.13.09-.082.01.055-.1.184-.1.03-.03.044-.04.03-.102-.07-.01-.085-.01-.07-.047-.063-.093-.086-.138.06-.156.05-.16.023-.05.09-.08.008-.007-.015-.076-.035-.18.045-.078.016-.047.104-.04-.032-.15-.064-.09.06-.088.06-.07.122-.132.05-.07.043-.136.16-.023.036-.01.042.03.012.03.055.058.183.03.14-.018.123-.06.016.105-.05.044-.14.06-.034.07-.03.08.08.007h.17l.034.07v.094l-.026.06.05.04h.1l.116-.083.145-.07.133-.067.055-.03.09-.012.035-.078.19-.063.044.05.04.095.085.035.077.035.133.086.05.035.063.05.08.075.094.067.074.023.177.063.137.025.07.062.067.082.024.034.015.046v.003l.007.047-.008.085-.048.137-.086.097-.05.04-.11.08-.07.02-.074-.033-.043-.03h-.005L45.3 27.1l-.03.057v.004l-.063.036-.28.028-.113-.04-.067-.027-.03-.047h-.098l-.056.07-.074-.074-.066-.023-.07-.012h-.09l-.012-.076-.15.008-.388.024-.062.09-.137.106-.054.053-.116.06-.03.065-.05.05-.202.072-.035-.043-.125.01-.082.032.015.132h-.002zm-8.785 30.496c-11.297 0-20.777-7.766-23.4-18.25l.048.027.11.13.22.108.19.09.12.035.152.066.22.11.145.007.144.038.16.094.285.017.188.05.185-.11.11-.082.448-.02.086-.004.03-.004.103.097.12.047.087.188.206.056.19.086.087.008.285.16.157-.078.144-.027.265.05.027.173h.146l.14.156.086-.047.04.033.054.04.008.003.156.113.013.085-.078.043-.035.147.117.215.112-.02.13.062.155.094.09.19.137.048.047.016.057.027.03.01.123-.035.213.16.086.016.25-.097-.017-.085-.102-.098.1-.106.144-.02.153.067.086.015.046.105.023.14.047.142.146.007.055.164.025.14.024.17.03.17-.043.115v.207l.13.094-.145.166-.097.13-.07.124.03.173-.132.16-.09.124-.085.113.114.158-.02.07-.04.113v.01l-.004.167-.04.117-.003.177.024.17.045.135.098.016.04.11-.062.126-.105.11-.054.175.056.165.048.137.138.302.16.113.164.094.132.12.074.106.16.117.192.293.02.04.034.077.03.07.126.246.325.58.237.454.095.22.18.054.163.116.087.066.043.03.04.013.23.066.164.117.187.063.106.08.117.085.032.098.09.29.11.183.03.23.013.258.023.344.023.14-.056.212.014.116.118.328.02.168-.036.133-.004.02-.062.125.015.113.053.168-.025.41-.062.18.008.05.013.084v.013l.132.125.027.14-.06.23-.015.068.008.027c.126.074.243.147.365.226 1.08.646 2.204 1.204 3.37 1.68l.006-.01.036-.08.01-.022.11-.42-.053-.165-.124-.07-.02-.16v-.007l-.08-.133-.006-.004-.19-.14-.15-.207.02-.238.094.07.094.215.148.035.102.102.144.004.168-.05.336-.05.094-.17.04-.073.155-.285.046-.083.028-.056.027-.18-.003-.23.17-.23.05-.223.016-.082.164.254.03.043.003-.016.02-.096.023-.1.03-.207.052-.238.12-.138.09-.156-.02-.113-.022-.17-.032-.197-.073-.304.04-.123.09-.138.073-.095.14-.195.196-.19.06-.06.024-.02.21-.093.07-.157.158-.076.293-.19.2-.01.04-.144-.005-.23.085-.356.133-.254.096-.332-.02-.14.027-.152.008-.348-.062-.223.027-.297.004-.05-.008-.028-.063-.25.074-.447.11-.012.03-.007.024-.082.035-.13.027-.17.032-.176.14-.226.223-.235.023-.23.003-.004.017-.086.05-.242-.075-.48-.164-.148-.064-.25-.188-.06-.218.067-.232-.194-.305-.273-.285-.04-.01-.003-.076.013-.153.02-.3-.067-.267-.043-.06.184-.16-.124-.244-.25-.217-.086-.246-.074-.313.012-.147.172-.04-.254-.128-.094-.19.086-.16.285.024.14-.12-.017-.134.082-.027-.195.04-.27.252-.093.008-.145-.02-.148-.136-.12.06-.18-.13-.067-.063-.25-.19-.31-.203-.175-.225-.168-.34-.12-.124-.07-.55.112-.086.015h-.005l-.17-.148-.15-.04-.16.083-.026-.168-.004-.174-.058-.07-.308-.13s-.196.087-.235.005c-.045-.077-.017-.112-.017-.112l.01-.117-.13-.07-.15-.066-.157-.09v-.2l-.11.048-.175.07-.152.066-.066.15-.23.01-.123-.065-.184.024-.17.023-.21.117-.078-.134-.156-.094-.192-.087-.148-.035.02.138-.13.105-.133.11.02.114.007.05.016.02.1.138-.02.11-.008.068-.055.01-.062.004-.11-.152-.027-.2v-.17l-.05-.17.024-.046.06-.11.05-.098-.078.01-.086.016-.007.004-.07.1-.1.097-.132.11-.104.045-.266.152-.065.125-.028.176.055.168-.2.406-.39-.31-.196-.175-.22.094-.143.167-.19.086-.25.02-.216-.207-.12-.168-.137-.195-.098-.242-.005-.002.004-.29.004-.5v-.127l-.074-.14-.18-.08-.07-.026h-.03l-.374.008-.196.057-.156.046-.137.047-.038.013-.21-.024.01-.04.014-.066.078-.426-.02-.285.145-.195-.084-.918-.223.038-.273.102-.157.133-.082.215.028.195-.1.273-.157.113-.17.054-.13.078-.09.157-.127.054-.086.035-.142.02-.035.007-.006-.02-.036-.082v-.004l-.242-.105-.578-.723-.047-.276-.033-.258-.113-.44.04-.24.096-.124-.03-.203-.12-.27-.01-.234.106-.242.27-.156.023-.18.115-.188.047-.017.074-.04.094-.038.22-.09.19-.03.267.02.085.155.125-.104.235.023.1-.105-.05-.137v-.204l.227-.035.25-.04.16-.08.19.112.164.026.012.004.07-.008.098-.016.105-.046.137.098.136.152.08.13.14.358.026.168.136.043.02.14.152.143.123.242.114-.016.043-.093.04-.15-.04-.253-.1-.273-.13-.265-.03-.223-.14-.155-.03-.195.015-.266.016-.29.16-.257.095-.13.347-.375.145-.19.148-.165.016-.093.176-.172-.086-.214-.08-.13-.19-.118-.026-.17-.086-.158.003-.15-.02-.167.053-.14.05-.14h.204l-.094.128-.007.028-.032.095.032.195.093.07.156.067.058-.184.043-.13.016-.05-.016-.02-.098-.136.08-.074.134-.047.07-.13.008-.12.01-.087v-.027l.207-.176h-.176l.148-.195.11-.048.13-.06.14-.07.14-.02.012-.116-.047-.104V30.6l-.03-.203.148-.165.164-.058.147-.137.156.06.108-.075.04-.122-.03-.195.22-.066.134-.05.083-.066.04-.093.105-.1.078.16.144.007.07.078-.33.11-.127.11-.13.132.055.164.102.07.16.095.14-.027.126-.13.035-.15.12-.19.163-.05.106-.08.163-.254-.235-.023-.23.036-.172-.15-.098-.1-.117-.215-.116-.183-.298-.067.008-.145.117.008.17-.226.018-.09-.042-.11-.114-.13-.2.032-.32.163-.18.168-.254.22-.164.253.004-.144.1-.3.16-.12.126-.136.086-.152.222-.266.532-.115.253-.065.16-.083.245.105.3-.133.153-.138.25-.238-.025-.14.192-.086.242-.095.17-.23-.023-.137-.036-.223-.188-.086-.145-.035-.245.126-.42.266.13-.105.13-.254.17-.05.097-.102-.05-.137-.1-.1-.12-.01-.394.06-.122-.21-.186-.114-.133-.128-.15-.117.182-.112-.02-.114-.176-.027-.016-.143-.143-.122-.098-.097-.165.05.063-.156-.027-.17-.096-.104-.157-.056-.118-.187-.028-.188-.005-.036-.077.007H18.3l-.026.144-.008.037-.004.007-.106.215-.136.078-.067.09-.13.137-.15.054-.114.043-.106-.157-.093-.047-.23.012-.066-.254-.004-.146-.003-.078.003-.175.008-.112-.167.027-.04-.08-.1-.1-.16.11-.11.017-.116-.187-.222-.093-.077-.04-.196-.105-.193.172-.297-.036-.288.002-.27.082.036.242.04.235.026.2.13.023.077.274-.06.137-.22.15-.05.216.02.02.06.05.208.177.203.293.13.11.07.063.04.034-.027.375-.082.257-.097.076-.1.082-.056.047-.18.187.075.235.05.082.065.105.004.016.035.23-.016.41-.098.176-.054-.004-.086-.01-.153-.02-.19-.176-.075-.195-.164-.16-.033-.204-.035-.24-.04-.28-.24-.1-.523.077-.278-.094-.087-.026-.24-.082-.19-.17-.066-.033-.08-.036-.125-.058-.25-.047-.257-.083-.227.117-.184-.137-.118-.137c.77-2.084 1.82-4.03 3.102-5.8l.08.05.005-.1.07-.046.082.023.13.094.046-.064.07.1.024.134.14.04-.05.18.046.05.07.08.07-.027.087-.05.067-.086.106-.06.015.118.02.133h.004l.12.055.083.023.016.133.07.162.07.086-.13.034.02.113.027.07.047.055-.066.068-.067.086-.086.125-.085.112.006.137.34.23-.043.104-.308.1-.12.064-.287.002-.226.13-.06.034-.01.023-.1.26.027.15.093.027.09.062.22-.075.13-.155.073-.01.01-.003.084-.012.046-.023.016-.004-.048-.17.06.032.054-.008.114-.04.047.072.112.003.066.062.125.06.043.034.047.046.066.063.04.034.15-.02.062.048-.09.07-.033.023.023.063.005.008.058.01.024.002.152-.003.054-.03.02-.007.167-.027.24-.05.18.01.167-.025.156.016.18-.046-.008-.1-.117.024-.113-.12-.156-.013-.206-.1-.19-.11.07-.027.17-.047.104-.054.133.12.235-.08.22.067-.043-.164.043-.107-.023-.132-.07-.08-.094-.005-.375-.154-.11-.12-.08-.12-.064-.048.035-.258-.016-.13.16-.066.1.14.083.063.09.083.156.015.02.094.092.02.152.15.2.008.127-.02.008-.078.008-.21.13-.056.02-.1-.013-.095.28-.042-.008-.29-.054-.09-.106-.077-.15.02-.19.13-.06-.01-.074.01-.13.024-.152-.227-.097-.16-.09.05-.046.067-.062.086-.164.064-.093-.12-.05-.06-.062-.066-.023-.028-.266-.055-.08-.07-.022-.125.078-.016.078-.105-.06-.126.15-.024-.12-.077-.157.008-.074-.103.087-.075.1-.05v-.136l-.14-.06-.005.08-.136.003-.123-.153-.145-.023-.05-.008-.048.066-.035.154-.01.046-.007-.02-.03-.108-.04-.133-.074-.083-.09-.067-.07-.098s-.14.015-.185.023c-.058.008-.035.027-.035.027l-.188.028-.05-.07-.157.102-.012-.082.004-.055v-.047c.773-.96 1.617-1.863 2.527-2.695l.14-.023.262.05.16.118.036.035.04.047.042-.008.066-.012.114-.047.094.043.043.11.04.082.32.13.18.042.026.003.015.098.008.046-.03.18.147.004.047.135.158.098.024.14.157.09.02.14-.075.07-.035.154v.14l-.02.09.015.082.14.006.106-.047.134-.08.078.004.07.004.025-.006.23-.04.04.083.117.012.15.003.09.043-.044.12.02.11.074.105-.016.087-.14.028-.094-.043-.156-.067-.266-.015-.215.052-.012.007-.112.04-.01.005.093.032.12.03.068.07.235.024.07.076.12.04.122.046.113-.02.08-.043.085-.01.062.07.028.138.047.14-.01.172-.105.016.024.17-.004.142-.113-.008-.12.02-.096.1-.02.09.094.048.23-.035.11-.02.052.106.04.11-.138.046-.145-.004-.12-.035-.137.074-.125.138.023.14.11.125-.074.128.03.166.095.046.04.078.113-.015.16.09.054.195-.007.117-.046.093.074.11.12-.133.02-.09.083-.047.11-.012-.065.153-.102.075-.077.066.082.138.12.066.02.11.047.082.008-.005.09-.015.012-.005.07.106.082.06.02.015.007.063.017.078.196-.135.012-.005.004.004.044.1.11.13.02.14.094.04.043.112.07.106.165-.082.067-.125.102-.074.046.115.105.125.2-.032.14.008.075.08.09.042.09.192.066-.067.082-.07.015-.09-.048-.082-.098-.096.058-.13.094-.183.012-.116.038-.09.004-.203v-.144l.03-.05.048-.075.07-.07.05-.093.04-.09-.02-.117-.004-.23.012-.117.03-.18.013-.082.103-.077.04-.145.245-.065.133-.11.137-.046.043.112.118.007.07-.097.062-.012.082-.01.024-.003.125-.106.094-.15.04-.12.073-.1.1-.075.19-.29.128-.077-.016-.11-.028-.2.097.074.09.012.16-.086.14-.048.055-.012.117.012.137-.05.08-.016.11-.043.077-.042.077-.07.05-.036.118.016.138-.023.063-.18.16-.082.075-.098.116.016.064-.124.194-.06.137-.022.015-.09.068-.125.164-.22-.223.033-.15-.003-.18-.09-.14.024-.183.145-.11.013.048-.234.015-.09-.07-.08.07-.12-.1-.075-.08.01h-.177l-.14.025-.13-.096.086-.012.112-.018.085-.012.08-.012.11-.02.09.02.116.012.094.043.097.07.13.102.046.078.122.04.117.038.12.048.14.01.094.01.075-.065-.015-.116-.047-.134-.16-.096-.106-.126-.276-.103-.125-.092-.12-.035-.102-.07-.09-.047-.106.048-.11.015-.143-.008-.036-.062-.046-.074.008-.01.066-.08.082-.044.102-.078.137-.078.1.133.095.042.074.078h.015l.098.01.04.072.08.14.13.07.09.016.117.04.08-.04-.07-.078-.074-.1.13-.08-.075-.078-.02-.02-.16-.066-.127-.097-.195-.114.208-.032.113.012.173-.027.097-.11.136-.044.067-.156-.11-.13-.273.13v-.207l.223-.06-.02-.11-.023-.173-.168-.148.11-.02.095.015.12.07.067-.155-.02-.113-.214-.255-.134.078-.144.024.074-.098.066-.12-.02-.09-.02-.053-.018-.06.328-.002h.078l.062.046.14-.022.106-.07-.015-.023-.054-.074-.036-.12-.073-.102-.11.043-.17.03-.1-.07.173-.2-.21-.027-.346-.004-.016-.087c-.01-.082.12.012.12.012l.207-.028.035-.12.04-.122.17-.195-.04-.257.353-.168-.01-.086-.25-.11-.197.03-.16.082-.05-.14.128-.103.195-.03.126.06.394-.06.144-.194.09-.086.066-.063.024-.02.094-.098.13-.11.093-.13.214.03.16-.23-.18-.062-.336.054-.094.016-.058.008-.215.032-.477.07-.16.113-.39.064-.145-.008-.164.082-.145.164-.09.133-.19.108-.033.004-.098.015-.126.02-.1-.098.132-.082.1-.07.08-.043.073-.1.093-.132-.097-.065-.172-.004-.196.03-.035.173-.27.094-.187-.085-.152-.082-.008-.003-.11.003-.175.007-.413.125-.258.036-.38.176.01-.066.002-.082.217-.117.073-.03.224-.077.48-.07.406-.074.14-.028.52-.093.347.003.195-.032.125-.13.028-.18-.24-.048-.085.012-.222.007-.07-.03-.027-.015h-.144l-.177-.008-.047-.11-.03-.03-.052-.048c2.338-.755 4.826-1.17 7.416-1.17 5.64 0 10.828 1.943 14.934 5.19l.026.182.078.18-.13.043-.112-.058-.06.195-.112-.035-.066-.098-.043-.106-.186.058-.11.012-.004.14-.194-.05-.117-.035-.134.014-.097.094-.023.08-.02.1-.008.017-.184.027-.11.02-.08-.012-.087-.015.12-.078.045-.087-.138-.004-.07-.103-.086-.016-.265.23-.14.13-.142.024-.098.07-.145.103-.078.043-.102.034.012.028-.067.05-.14.11-.01.137v.163l-.144.128-.073.068-.102.042-.11-.03-.128-.12-.027-.16.07-.096.145-.13-.055-.183-.102-.147-.203-.047-.32.047-.008.136.062.07-.02.223-.01.11.024.16-.03.194-.026.167-.035.14-.23-.072-.063-.07-.086-.016-.1.09-.063.054-.022.024-.094.12-.08.176.01.083.106.143.094.093-.134.02-.15-.087-.118-.063-.168-.007-.117-.062-.1.016-.01.167.02.16.09.044.134.145-.026.137-.16.05-.13.024-.206-.08-.066-.075-.102-.118-.105-.148-.053-.185-.047-.13-.142-.057-.145-.06-.172-.058-.095-.09-.106-.18-.168-.19.3.174.133-.02.09.067.143.044.223.016.273.008.25.02.144.062.18-.086.133-.184.1-.097.098-.087.062-.06.054-.046-.085-.203-.05-.16-.136-.005-.146-.086-.043-.03-.144-.108-.076-.03-.246-.11-.396-.078-.105.014-.228-.047h-.16l-.216.033-.09-.044-.2-.048.07-.1-.12-.093-.083.015-.133.02-.11.02-.223.112-.097-.093.07-.064.046-.062.15-.08-.195-.186-.086.017-.06-.048-.12-.063-.017.085.016.1-.126.08-.097-.12.086-.16-.04-.07-.09-.042-.067.067-.007.136-.036.138-.01.086-.08.04-.065-.076-.014-.078-.055-.024-.01.115-.06.118-.047.062-.005.035-.008.075-.062.093-.047-.132-.015-.08.062-.09.018-.064.02-.05-.07-.07-.113-.04-.06-.01-.023-.005-.087.01v.14l-.046.062-.105.043-.013.105-.07.07-.103.043-.08.012-.18-.087-.095-.02-.047-.01.055.182-.04.063-.085-.02-.117-.03.052.128-.086.013-.098.042-.094.122-.082-.016-.062.126-.098.068-.066.12-.06.09-.007.17-.056.195-.117.1-.09.106-.07.006-.035.008.047.13.042.105-.004.044-.004.042-.075.09-.082.15-.078.007-.074.07-.034.136-.14.17-.016.022-.036.145-.1.093-.026.142-.102.07-.07.04-.09.01-.105.18-.033.118-.094.07-.012.106.11.04.08-.013-.06.112v.004l-.12.074-.11.012-.027-.07-.016-.035-.082-.01-.082.01-.102.045-.015.02-.05.07.07.07.058.043-.207.093.017.107-.078.016-.106.016-.048.086.013.078-.044.01-.082.065-.035.114-.11.02-.062.084-.124.078-.043.086-.066.12.077.153.022.16.086.177.07.065.204-.055-.022.222-.15.073-.01.11.015.11.11-.017.05.155.022.16.145.06.142.03.32-.046.12-.107.105-.18.18-.08.082-.122.13-.046.104.092.04.13.073.128.008.043.013.082.008.035.118.2.2.11.09.038.038.07-.09.126-.07.067-.13.048.02.136-.132.02-.086-.012.027.16.097.12h.17l.034-.085-.012-.11.04-.112.1-.048.013.078.067.078.18-.055.07-.07.008-.136.062-.117.094-.07.267-.068.082-.176-.047-.12-.026-.187.03-.168v-.168l-.02-.11.016-.08.105-.02.083-.012.125-.07.078-.043.045-.086-.044-.076.083-.175-.133-.146-.096-.096-.113-.01-.084-.048-.085-.035-.116-.554.047-.094-.015-.105.065-.063.1-.1.03-.17.02-.015.05-.048v-.164l.1-.103.254-.09.125-.1.03-.145.124-.098-.077-.126-.098-.12.085-.126.07-.094.087-.12.047-.087.042-.09.184-.03.07.073.294-.043.153.087.02.13v.167l-.148.133-.11.156-.06.14-.087.12-.054.2-.14.16-.013.04-.033.085-.012.035.04.235.022.16.082.183-.067.12.098.093.044.097H40l.102-.044.082.016-.012.086-.07.12.195-.003.04.078.198.074.094-.093.06-.15.065-.065.148-.11.105-.04.16-.025.13-.047.102-.017.137.173.112.04.104-.016.078-.044.09.043-.062.14-.07.097-.156.027-.12-.043-.005.165-.208.06-.14-.032-.138.02-.11-.04-.12.153-.13.023-.104.015-.066.094-.074.066.02.125.003.03.035.04.03.03.088.044.003.386-.094.095-.067.09-.118-.035-.04-.08-.06-.042-.102-.122-.155.05.055.18.004.193-.035.145-.064.12-.043.083.016.11.007.016.063.08.017.11-.013.015-.105.114-.04-.08-.08-.01-.04.14-.014.113-.027.17-.12-.06-.07.037-.064.14-.074-.12-.062-.048-.163.027-.066.094-.25.15-.2.08-.102.048-.11.038h-.155l-.098-.066-.19-.05-.06.007-.102.233-.13.02-.07-.07-.085-.075-.105.02-.11-.094-.038-.155.125-.075.003-.11-.07-.1-.02-.133.05-.2.02-.082-.144-.09-.06-.152.09-.15-.017-.12-.004-.017-.044-.06-.027-.042-.044.06-.07.098-.004.003-.066.118-.082.148-.176.083.144.032-.215.23.077.12.094.1.013.104.048.124.074.1.035.104.07.235.046.13-.134.215-.048.003-.114-.01-.124.048-.187.06-.08.007-.136.018-.007.087-.078.066-.078.18-.004.157v.17l-.012.08-.202.03-.08.013-.166.082-.1.046-.122.1-.004.136-.035.112-.073.094-.157.055-.035.114-.102.048-.13.075-.07-.13-.16-.004-.03.145.04.102.05.156-.098.07-.122-.01-.102.015-.11.02-.18.1-.076.062-.042.094.02.133.113.01.2.02.176.13.23.116.23.12.087.165.043.244.008.1.005.09.008.173.04.27-.102.11-.223-.06-.212.032-.188-.06-.184.02-.18.03-.253.13-.19-.03-.155-.04-.047.07-.077.102-.17.062-.078.1.024.122.113.137.077.14.035.24.03.21-.066.165-.027.216.028.18.055.15.074.073.04.273.022.153.217.026.23-.097.09-.01.108.134.147.102.15.008.168-.117.097-.104.184-.027.152-.02.074-.106.04-.125.16-.15.116-.047.043-.132.013-.124.13-.14.015-.1-.078-.108.016-.125.095-.17.075-.136.045-.066.11-.14.163-.117.167-.112.048-.07.03-.192-.02-.12-.102-.106.048-.102.16-.082.012-.008h.21l.22.06.16.034.082-.106.062-.128.145-.05.105-.138.066-.164.216-.035.145.19.106.108.152.168.054.14.144.164.163.067.168.093.17.063.194.066.202.153.176.13.134.07.055.14.03.21-.01.122-.08.105-.077.048-.12.017-.138.043-.144.082-.085-.017.086.14.195.063.164.07.1.047.002-.156.04-.16.143-.056.074-.1.08-.106.067-.137.004-.18-.01-.09-.075-.08-.027-.153.197-.122.137.098-.156-.218-.114-.1-.137-.072-.103-.078-.137-.132-.094-.016-.35-.066-.117-.167-.047-.117-.132-.07-.203-.125-.105-.105.007-.102.008-.085v-.06l-.082-.202.25-.13.082.37.004.014.023-.016.085-.057.128-.172.176.157.003.043.01.08.005.033.05.14.203.063.19.09.243.18.346.037.15.188.07.45.05.117.15.193.24.148.15.19.13.073.182.005-.16.144.055.145.153.008.203-.09.16-.148V28.9l.02-.087.046-.02.07-.032-.047-.11-.056-.017-.09-.025h-.01l-.157-.007-.077-.11-.047-.112.012-.125-.055-.145-.027-.148.137.093.102-.01.082-.013.046-.1-.05-.115.147-.023.277-.017.078.14.098.2.082.14.074.083.015.12-.067.134.05.148.153.008.043.266.142-.02.113.106.19.066.24.148.11-.05.07-.133.056-.1.18-.028.2.09.162.067.185-.03.137-.115.15-.172.165-.116.073.26.007.052.016.077.02.14.047.298.03.212-.05.254v.184l-.016.125-.066.16-.447.042-.113.075-.13-.043-.19.042-.196.12-.09.048-.147.027-.148-.007-.134-.05-.027.22-.114.047-.09.015-.094-.015-.163-.094-.157-.012-.148.025-.102-.083-.057-.024-.043-.02h-.184l-.12.02-.124.015-.108-.106-.07-.08-.148.025-.12.02-.18.183-.08.1.028.18.024.15-.08.1-.074.106-.184-.004-.098-.016-.125-.043-.16-.065-.2-.063-.222-.09-.172-.12-.246.007-.224-.06-.22-.022-.112-.11-.152-.008-.105-.078-.062-.133-.034-.077-.034-.074.078-.104-.042-.273-.137-.098.047-.22.122-.233-.176.03-.125.014-.143.023-.2.092-.187-.004-.126-.044-.043.098-.147.023-.13-.012-.218-.057-.177.058-.013.013-.074.07-.102.102-.265.033-.185-.028-.124.047-.065.132-.138.11-.203.093-.05.097-.202.063-.15.055-.105.078-.273.043-.113.047-.12.02-.16-.066-.13-.042-.148.023.032.208-.03.188-.103.173-.1.137v.003l-.1.102h-.004l-.16.113-.153.238-.008.34.03.24.024.152.025.18-.082.253-.234.306-.1.14-.132.142-.075.133-.145.056-.11.324-.187.362-.026.188-.12.23-.047.32-.195.305.035.233.086.202.01.035.032.082.023.06.008.303.035.203.11.145.04.267-.02.215-.026.254-.08.29-.056.25.113.135.065.23.087.144.11.102.108.14.12.16.162.066.07.082.18.16.145.16.086.2.083.108.124.194.043.047.026.034.05.043.125.113.31.23.23.113.235.15.16.034.164.04.116-.017.483-.223.175-.094.18-.023.233-.04.153-.02.266-.07.203-.065.164-.086.184-.024.185-.215.137-.11.43-.123.007-.004.082.023.047.015.226.116.05.146.04.24.2.093.292-.075.163-.09.15-.024.28.2.085.145-.008.37-.004.118-.043.188.073.454-.113.293.29.29.327.32.345.437.062.23.148.163.184.215.058.363.05.14.032.08.035.1.05.3.054.172.03.204.036.31-.134.266-.012.148-.004.34-.027.254-.008.028-.028.094-.044.137.013.305.134.258.125.223.18.188.194.466.22.21.26.51.04.27.033.236.12.316.035.09.02.07.042.165.16.215.18.188.176.156.11.29.167.335.01.02.054.156.077.14-.004.337.035.238.078.11.196.06.27-.01.02-.004.11-.03.106-.028.48-.07.132-.145.328-.05.12-.016.31-.168.16-.144.043-.074.03-.06.102-.137.07-.14.105-.105.075-.133.1-.14.07-.134.028-.22.102-.14.07-.164.105-.105.074-.13-.117-.14.27-.07-.055-.358-.07-.234-.112-.138.113-.077.125-.14.172-.087.14-.05.08-.106-.02-.125-.06-.777-.09-.176-.043-.082-.104-.11-.05-.144.004-.148.108-.078.043-.16.08-.258.1-.137.31-.172.285-.172.094-.193.132-.33.047-.31-.04-.235-.027-.19-.012-.08-.015-.124-.037-.16-.02-.073L48 43.9l-.048-.298-.117-.173-.14-.127-.04-.453.06-.227-.137-.098-.152-.133-.023-.21.12-.38-.05-.33.062-.192.096-.172.214-.215.082-.253.195-.344.075-.285.132-.14.22-.183.233-.253.237-.435.2-.31.1-.324v-.212l.08-.32.112-.44.13-.36.02-.246.056-.254-.03-.223-.01-.046-.003-.027-.04-.21-.194.116-.17.085-.17.062-.09.042-.16.145-.056.07-.073.102-.257.014-.075.004-.15.022-.16-.04-.28-.23-.215-.21-.02-.15-.22-.18-.097-.11-.137-.1-.14-.103-.106-.15-.164-.05-.007-.005-.082-.043-.096-.05-.078-.23-.066-.18-.01-.02-.104-.19-.147-.14-.147-.184-.148-.138-.078-.273v-.247l-.055-.116-.16-.218-.234-.17-.19-.42-.1-.14-.14-.39-.107-.155-.194-.173-.027-.203-.146-.137-.02-.167-.026-.157.147.18.18.097.266.12.157.223.11.188.283.243.2.22.308.194.024.16.03.2.027.204.106.145.07.156.176.337.046.027.093.05.21.12.197.213.15.18.126.31.004.007.027.078.047.148.088.31.068.155.285.247.133.06.21.05.267-.164.112-.016.242-.04.375-.222.23-.117.132-.184.165-.11.066-.044V34.7l.3-.17.1-.137.104-.14.02-.02.156-.173.31-.13.093-.176.078-.296.098-.137.16-.307-.03-.2.16-.272-.114-.23-.317-.195-.17-.056-.18-.1-.11-.187-.136-.1-.035-.2-.22.304-.013.02-.027.16-.006.027-.344.132-.157.066-.164-.02-.12-.226-.074-.195-.125-.015-.085.216-.152-.18-.11-.19-.175-.344-.157-.214-.155-.183-.102-.15.013-.204.27-.082.282-.043.188.18.062.153.06.11.15.183.1.106.183.136.138.062.207.05.18-.03.085-.012.02-.004.19-.067.16-.027.164.016.147.18.103.11.16-.026.42.098.22.09.43-.105.633-.18.203.052.086.026.09.024.004.003.06.122.34.11.234.167.18.097.198-.03-.238.363-.102.14.28.2.286.04.164-.024.11-.1-.044-.28.027-.125.13.066.078.228.04.277v.29l.1.354.16.386.028.062.006.008.188.46.22.337.046.32.08.274.013.01.28.272.27.406.083.317.235.17.18-.153.09-.215.15-.1.055.107.05.32.126.265.083.277.21.047.142-.146-.035-.238-.07-.2-.19-.17-.104-.145-.06-.112-.15-.184-.032-.204-.03-.194-.044-.277.043-.255-.055-.358-.04-.234.013-.207.275-.326.172-.23.19-.076.23-.363.106-.14.102-.136.16-.31.074-.058.06-.046c.036.56.064 1.12.064 1.69.007 13.323-10.79 24.12-24.11 24.12v-.002zm-7.91-46.898l.004-.008c.11-.04.214-.074.324-.11l-.05.044-.006.004-.078.062-.047.008-.157.02.013-.02h-.002zm22.574 15.645l.02.054.012.044.032.03.027-.042.07-.02.016-.003.05-.008.036.008v.006L48.97 27l-.032.11.05.097.044.055.03.054.01.012.03.03.02.044.008.04-.027.015-.012.004-.013.065.043.114.003.08.016.093-.01.043v.004l.016.096.023.04.002.05-.02.04-.062.01-.025-.035-.074-.01-.05.01-.06.03-.056.02-.043.057-.05.043-.12.004-.127-.05-.03-.056-.048-.016-.066-.008-.048-.035-.064-.017-.055.016-.054.004-.067-.028-.052-.01-.03-.056-.004-.04-.004-.028-.064-.085-.03-.055-.067-.05-.012-.083.027-.05.043-.09.008-.038.02-.108.012-.062.004-.063.036-.05-.008-.07-.017-.084.005-.06.07-.01.047-.02-.02-.03-.05-.032-.048.007-.055-.05-.047-.063-.016-.027-.056-.08-.02-.022-.05-.027-.083-.07-.05-.026-.044-.043-.016-.094-.063-.043-.086-.09-.063-.25-.052-.046-.016-.086.025-.066-.05-.04-.063-.026-.054.027-.035.032-.02-.055v-.084l.01-.117.027-.22.012-.085.015-.133.062-.053.04-.068.037.027.078.04.09-.11-.047-.017-.02-.045.09-.024.04.017.062.028.038-.043.008-.065.03-.03.157.022.036-.008.054-.106.005-.04.026-.07.027-.027.066-.026.07-.01.03.067.066.04.027.016h.095l.082-.012.047.06.055.034.13.035.11.014.016.094.03.078.048.066.05.036.048.055.008.056-.01.075-.052.058-.078.036-.078-.025-.047-.027-.062-.004-.07-.023-.043-.007-.02-.005h-.086l-.03.062-.024.06-.11.01s-.003-.007-.03.016l-.03.028.007.13.07.05-.01.047-.12.005-.135.03.04.09.09.037.09.043.03.083.03.035.08.06.065.03.05.024h.035l.07.004.047-.003.074.308h.043l.04-.01.017-.005.034-.043.02-.024.017-.02.04.032.05.004.09.07s-.004.04.027.066c.023.033.066.076.066.076l.067.027.06.023-.026.066-.033.015-.005.07-.02.046-.01.03-.048.026-.047-.007-.075-.013-.058-.042-.03-.016-.056-.015-.006.015-.044.076-.03.057.017.07.004-.002zM34.043 8.81C20.133 8.81 8.82 20.124 8.82 34.03c0 13.908 11.317 25.22 25.223 25.22s25.22-11.312 25.22-25.22c.004-13.905-11.314-25.22-25.22-25.22zM19.3 4.566l-.492-.984c.332-.168.668-.328 1.008-.484l.46 1c-.327.148-.65.308-.976.468zm17.692-3.343c-.707-.063-1.422-.102-2.14-.12L34.878 0c.74.02 1.48.06 2.21.125l-.098 1.098h.002zm-6.422.05L30.457.176c.73-.078 1.465-.13 2.21-.16l.044 1.1c-.72.032-1.43.083-2.14.157zm10.657.606c-.695-.16-1.398-.29-2.105-.4L39.29.39c.734.114 1.457.25 2.176.41l-.24 1.08zm-14.88.114L26.09.922c.715-.172 1.44-.32 2.172-.445l.183 1.085c-.707.126-1.406.27-2.097.434zM45.34 3.082c-.672-.246-1.348-.47-2.04-.668l.31-1.06c.71.208 1.414.44 2.105.693l-.375 1.035zm-23.086.184l-.395-1.028c.68-.265 1.39-.508 2.09-.726l.325 1.05c-.683.215-1.36.446-2.023.704zm27.008 1.546c-.633-.328-1.277-.64-1.934-.93l.445-1.007c.68.297 1.344.62 2 .96l-.51.977zm3.664 2.227c-.582-.41-1.184-.804-1.797-1.175l.57-.94c.634.382 1.25.788 1.857 1.21l-.634.902h.002zm3.344 2.68c-.527-.485-1.07-.95-1.63-1.395l.688-.86c.578.462 1.137.942 1.684 1.442l-.742.812zm2.968 3.09c-.46-.547-.938-1.08-1.434-1.594l.797-.763c.515.53 1.007 1.082 1.48 1.645l-.84.71v.002zm2.543 3.45c-.384-.603-.79-1.193-1.212-1.767l.887-.656c.437.593.856 1.202 1.258 1.823l-.93.6zM63.855 20c-.305-.644-.63-1.28-.977-1.905l.965-.536c.356.645.69 1.3 1.01 1.97l-.997.47zm-60.3 1.552l-1.02-.422c.28-.684.58-1.36.905-2.02l.99.485c-.315.644-.608 1.297-.876 1.957zm61.87 2.433c-.22-.683-.46-1.355-.723-2.02l1.027-.402c.27.688.516 1.383.742 2.086l-1.046.336zM2.187 25.62l-1.066-.28c.194-.715.405-1.426.636-2.12l1.047.346c-.226.676-.43 1.36-.613 2.055h-.003zm64.27 2.525c-.125-.707-.277-1.403-.45-2.094l1.07-.263c.18.71.333 1.434.466 2.164l-1.086.196zM1.37 29.828l-1.093-.14c.094-.74.21-1.47.352-2.188l1.08.21c-.138.696-.25 1.403-.34 2.118zm65.57 2.574c-.034-.718-.093-1.43-.174-2.136l1.097-.125c.082.73.14 1.467.18 2.21l-1.103.053zM0 34.105v-.074c0-.716.02-1.43.066-2.14l1.102.07c-.043.69-.067 1.38-.067 2.077l-1.1.07zm67.973 2.672l-1.098-.09c.06-.707.09-1.422.102-2.14l1.102.014c-.016.75-.05 1.485-.11 2.22zM.297 38.523C.2 37.79.125 37.047.077 36.32l1.103-.07c.046.715.117 1.426.21 2.13l-1.093.143zm67.04 2.633l-1.08-.23c.15-.695.274-1.398.38-2.11l1.09.16c-.11.735-.24 1.462-.39 2.18zm-66.18 1.71c-.19-.706-.36-1.426-.507-2.154l1.078-.214c.14.703.3 1.398.49 2.086l-1.064.285.003-.005zm64.976 2.552l-1.04-.367c.24-.67.454-1.35.65-2.04l1.062.3c-.203.71-.426 1.415-.672 2.11zm-63.55 1.64c-.282-.68-.544-1.37-.782-2.073l1.046-.356c.23.68.48 1.345.754 2l-1.017.427zm61.796 2.43l-.987-.5c.324-.637.63-1.28.914-1.94l1.01.437c-.29.68-.605 1.35-.94 2.003zm-59.84 1.54c-.367-.638-.72-1.29-1.043-1.954l.987-.484c.317.64.652 1.27 1.008 1.887l-.953.55zm57.566 2.27l-.91-.626c.4-.59.792-1.19 1.155-1.805l.946.562c-.37.634-.773 1.256-1.19 1.865v.002zM7 54.708c-.45-.588-.88-1.19-1.29-1.803l.92-.61c.397.595.81 1.177 1.245 1.743l-.875.67zm52.37 2.07l-.82-.736c.478-.53.94-1.078 1.384-1.64l.863.683c-.457.574-.934 1.14-1.426 1.69v.002zm-49.46 1.26c-.52-.524-1.023-1.06-1.512-1.617l.832-.725c.47.54.957 1.062 1.46 1.566l-.78.78v-.002zm46.293 1.832l-.72-.835c.544-.465 1.07-.95 1.583-1.45l.77.79c-.527.516-1.074 1.016-1.633 1.495zM13.23 60.974c-.586-.453-1.152-.922-1.707-1.414l.73-.83c.536.474 1.087.93 1.653 1.368l-.676.875zm39.434 1.558l-.602-.92c.598-.392 1.184-.802 1.754-1.23l.664.882c-.593.44-1.2.867-1.816 1.27v-.002zm-35.762.92c-.64-.376-1.265-.767-1.875-1.18l.613-.915c.594.402 1.2.78 1.817 1.14l-.555.954v.003zm31.91 1.26l-.477-.99c.645-.313 1.277-.642 1.9-.993l.542.955c-.644.363-1.3.707-1.965 1.026zm-27.94.72c-.685-.29-1.356-.594-2.017-.926l.493-.984c.636.32 1.29.617 1.95.895l-.426 1.015zm23.84.937l-.345-1.05c.68-.222 1.352-.47 2.012-.737l.41 1.023c-.687.274-1.38.528-2.08.762zm-19.65.506c-.714-.195-1.422-.414-2.117-.652l.36-1.043c.67.235 1.355.446 2.046.633l-.287 1.063zm15.36.598l-.207-1.082c.707-.136 1.402-.288 2.09-.468l.277 1.066c-.71.185-1.43.35-2.16.485zm-11.024.285c-.734-.103-1.465-.224-2.183-.37l.222-1.08c.696.14 1.4.262 2.11.36l-.15 1.09zm6.633.257l-.063-1.102c.72-.043 1.43-.105 2.137-.19l.133 1.093c-.73.09-1.465.15-2.204.2v-.002zm-2.212.054c-.742-.003-1.48-.034-2.21-.085l.077-1.102c.707.05 1.422.078 2.14.082l-.007 1.106zM5.484 17.603l-.953-.55c.19-.325.38-.646.577-.962l.938.582c-.188.308-.375.617-.56.93z"/><path d="M15.648 4.852c.74-.73 1.84.382 1.078 1.128l-3.09 3.06 1.676 6.9-1.14 1.13-2.84-5.71-2.313 2.285.2 1.77-.902.894-1.044-2.015-2-1.063.906-.894 1.754.214 2.313-2.29L4.57 7.36l1.145-1.13 6.824 1.696 3.106-3.074z"/></g></svg>