<svg version="1" xmlns="http://www.w3.org/2000/svg" width="65.602" height="72.93" viewBox="0 0 65.602 72.93"><path fill="#FFF" d="M55.75.336L24.957 63.05M56.437.676L25.65 63.383l-1.378-.677L55.06 0zM23.114 58.95L52.64.632 19.224 34.356M0 68.03l65.598-.163.004 1.53-65.598.165zm.48 3.363h64.586v1.53H.48z"/><path fill="#FFF" d="M15.567 64.266l20.136 5.218 4.586-.875.583-2.264-24.222-6.278m34.755-19.28c0 1.483-1.2 2.69-2.688 2.69s-2.69-1.207-2.69-2.69c0-1.493 1.202-2.692 2.69-2.692s2.688 1.2 2.688 2.69z"/><path fill="#FFF" d="M37.082 52.035l-4.14 4.618-.196.218-.07.285-1.81 7.56 2.244.532 1.738-7.273-.19.22.26-.5-.07.284 3.82-4.262-.733-.527c-.412-.3-.7-.708-.853-1.153z"/><path fill="#FFF" d="M34.656 58.19l.192-.213.07-.286m7.742-15.173l-3.832.88.223.054-.446-.007.226-.05-3.884-.988-.47 1.854 4.102 1.046.227.055.223-.05 1.922-.44c.89-1.236 1.593-2.224 1.593-2.22.035-.047.082-.087.117-.133z"/><path fill="#FFF" d="M39.055 43.45l-.227-.055-.226.046m.008 8.81l2.257 1.618c.273.195.598.273.926.22.328-.06.613-.235.81-.505 0-.004 5.155-7.2 5.155-7.2.195-.27.27-.597.22-.93-.052-.323-.23-.612-.505-.804l-2.258-1.618c-.274-.193-.603-.275-.934-.217-.325.05-.606.234-.8.504l-5.16 7.19c-.396.563-.27 1.34.29 1.743z"/><path fill="#FFF" d="M44.285 42.816c.327-.06.66.02.934.22l2.255 1.617c.273.194.45.48.504.804.05.332-.023.66-.22.93 0 0-5.155 7.195-5.155 7.2-.19.27-.48.444-.81.503-.327.05-.655-.027-.925-.22l-2.257-1.616c-.558-.402-.687-1.18-.288-1.738l5.16-7.19c.188-.275.473-.455.8-.51z"/><path fill="#FFF" d="M45.676 44.332l-7.53 1.926.502.008-5.324-1.56-.54 1.845 5.328 1.56.255.075.254-.066 7.534-1.935m-5.55 5.804l-4.408 5.597-.156.19-.06.24-1.758 6.882 2.23.574 1.758-6.89-.206.43 4.406-5.603"/></svg>