<svg xmlns="http://www.w3.org/2000/svg" width="48.796" height="43" viewBox="0 0 48.796 43"><path fill="#FFF" d="M20.328.74c.63.164 1.164.593 1.426 1.132.14.3.277.72.234.758-.008.008-.14-.008-.293-.03-.57-.1-2.152.058-2.34.226-.113.105-.105.36.008.472.113.114.21.114.758.024.235-.04.524-.067.66-.067.227 0 .24.008.196.09-.03.06-.03.15 0 .285.06.262.06.8-.008 1.028-.066.238-.023.382.15.472.18.09.374.032.448-.148.14-.317.156-1.29.023-1.65-.032-.073-.016-.08.128-.05.317.06.317.067.317.247 0 .456-.235 1.28-.504 1.815-.35.69-.773 1.133-1.296 1.387-.254.12-.352.14-.62.137-.466-.01-.775-.166-1.255-.638-.325-.324-.415-.45-.638-.906-.36-.727-.496-1.274-.51-2.024 0-.36.014-.676.057-.832.218-.87.816-1.508 1.62-1.726.34-.086 1.12-.094 1.438-.004zM19.03.03c-1.265.225-2.15 1.092-2.413 2.354-.09.414-.09 1.262 0 1.754.074.457.277 1.06.488 1.47.848 1.678 2.242 2.346 3.54 1.694.968-.496 1.8-1.86 2.023-3.308.293-1.958-.524-3.458-2.13-3.9-.323-.09-1.187-.124-1.507-.065z"/><path fill="#FFF" d="M46.136 25.31c-1.176 2.356-4.516 5.297-9.148 8.078-4.762 2.86-9.93 5.145-15.22 6.742-2.714.817-5.94 1.547-7.264 1.637-.856.06-2.594.06-2.633 0-.073-.113.352-.602.81-.906.327-.226.593-.343 3.898-1.792 4.656-2.032 12.14-5.363 13.328-5.926.203-.098 1.074-.496 1.926-.89 3.637-1.69 8.91-4.33 13.613-6.825.457-.238.832-.44.848-.44 0-.005-.067.143-.157.323zm-16.875-.133c.392.637.474.797.614 1.223.31.906.457 2.21.496 4.305l.03 1.453-.315.14c-.172.083-.316.15-.324.15-.007 0-.022-.196-.045-.427-.075-1.034-.33-2.296-.653-3.218-.31-.887-.87-1.898-1.352-2.453l-.188-.212.285-.188c.324-.21.797-.66 1.012-.97.073-.112.155-.202.17-.202.03.016.142.188.27.4zm-7.592-.937c1.093.18 1.695.316 2.414.555 2.656.863 4.148 2.676 4.746 5.746.106.556.254 1.77.254 2.087 0 .137-.03.148-1.55.84-3.57 1.613-9.75 4.344-9.782 4.32-.008-.016.007-.344.03-.727.032-.39.083-1.56.122-2.602.066-1.86.137-3.06.187-3.4.023-.163-.04-.343-.137-.413-.03-.016-.114-.04-.188-.04-.164 0-.226.04-.285.165-.09.164-.148 1.19-.293 4.8-.05 1.208-.113 2.16-.164 2.446-.023.13-.066.156-.54.36-.284.12-.53.218-.546.218-.015 0-.047-.344-.058-.773-.048-1.206-.212-3.968-.31-5.362-.05-.7-.105-1.453-.12-1.695l-.032-.426.203.05c.54.13 2.274-.073 2.446-.284.05-.067.082-.234.106-.57.128-2.004 1.125-4.566 2.054-5.28.258-.193.348-.193 1.442-.013zm4.496-9.727c.816 1.246 2.934 3.324 4.297 4.23.212.14.384.27.376.278-.047.04-1.328-.425-1.957-.698-1.54-.676-2.888-1.62-3.57-2.485l-.18-.226.194-.148c.254-.187.473-.53.578-.87.047-.15.09-.27.106-.27.02.004.085.086.156.19zm-15.43-2.484c.066.487.203.83.406 1.057l.157.172-.227.128c-1.215.69-1.922 1.262-2.82 2.3-.532.622-1.274 1.598-1.8 2.39-.22.326-.407.58-.415.572-.03-.03.422-1.086.726-1.688.693-1.38 1.65-2.836 2.58-3.922.234-.277 1.296-1.386 1.328-1.386.007-.008.035.164.066.375zm8.402-3.697c1.532.114 2.766.516 3.676 1.192.496.367 1.11 1.027 1.453 1.54.328.503.922 1.694 1.035 2.085.113.375.074 1.02-.066 1.36-.105.237-.383.538-.457.495-.04-.023-.31-.51-.832-1.47l-.195-.366.097-.235c.12-.293.13-.465.008-.578-.105-.106-.316-.12-.426-.04-.227.173-.774 2.04-1.087 3.75-.35 1.89-.398 3.14-.128 3.735.136.293.05.246 1.964 1.313 2.573 1.44 3.202 1.867 4.077 2.76l.316.325-.172.27c-.245.374-.75.855-1.073 1.026l-.277.15-.434-.325c-.816-.612-2.086-1.163-3.383-1.452-.937-.21-2.47-.45-2.707-.422-.652.074-1.273.7-1.875 1.898-.546 1.094-.995 2.676-1.108 3.89l-.032.392-.277.06c-.398.09-1.336.09-1.605.015-.254-.073-.286-.112-.33-.577-.014-.172-.112-.766-.217-1.312-.245-1.335-.316-2.01-.316-2.886 0-1.238.172-2.332.62-3.898.435-1.53.548-2.297.548-3.735-.008-1.073-.066-1.753-.254-2.674-.293-1.46-.976-3.15-1.32-3.262-.172-.05-.352.016-.426.164-.058.137-.04.246.114.488.058.098.113.196.113.22 0 .022-.075.05-.173.073-.098.015-.547.148-.988.308-.736.246-.84.27-1.013.234-.39-.09-.516-.336-.613-1.156-.067-.62-.09-.563.44-.977 1.81-1.38 3.864-2.2 5.896-2.348.712-.083.75-.083 1.426-.03zm-1.847-.648c-2.095.227-4.224 1.133-6.15 2.64-.51.39-2.004 1.883-2.488 2.485-1.988 2.437-3.66 5.852-3.797 7.746-.03.375-.023.398.074.496.128.12.316.13.425.016.047-.047.285-.434.547-.864 1.215-2.054 2.594-3.898 3.703-4.957 1.102-1.043 2.88-1.933 4.734-2.378.12-.033.128-.017.285.47.472 1.45.652 2.708.613 4.298-.03 1.23-.13 1.828-.516 3.156-.63 2.192-.797 3.907-.547 5.715.04.284.137.89.227 1.362.172.953.246 1.5.246 1.777 0 .104.016.276.047.39.113.457.496 6.398.523 8.227l.016.637-1.133.496c-1.335.586-1.44.636-1.874.938-.586.406-.976.887-1.05 1.297l-.032.172-.45-.023c-.245-.016-.683-.04-.976-.05-2.85-.138-6.046-.614-9.187-1.372-.35-.082-.593.105-.515.406.047.164.106.195.727.367 6.39 1.754 12.644 2.266 19.1 1.558 1.455-.157 2.603-.344 5.374-.87 7.327-1.396 14.893-1.126 21.93.765 1.417.383 1.483.39 1.59.137.065-.164.03-.31-.106-.398-.21-.137-2.453-.703-4.066-1.035-2.22-.45-4.328-.734-6.97-.93-1.058-.075-5.085-.075-6.18 0-2.46.172-4.358.425-6.644.863-2.39.465-3.742.676-5.488.856-1.11.114-1.37.114-.512-.007 1.95-.262 3.504-.555 5.746-1.078 3.328-.78 5.56-1.125 8.738-1.36 1.074-.08 4.223-.112 5.422-.05 3.163.156 6.203.58 9.05 1.254.856.202.962.194 1.052-.06.066-.203-.04-.39-.262-.45-.488-.136-2.363-.53-3.172-.675-5.22-.93-10.352-1.035-15.594-.344-1.664.227-3.316.532-5.543 1.06-1.254.294-2.977.652-3 .63-.008-.01.316-.114.734-.24 1.622-.48 3.88-1.272 5.7-2.003 5.38-2.152 10.906-5.25 14.504-8.11 2.56-2.03 4.344-4.148 4.898-5.788.203-.603.14-.915-.172-.915-.074 0-.637.27-1.38.668-3.968 2.102-8.24 4.274-11.07 5.64-1.237.595-3.335 1.583-3.366 1.583-.008 0-.03-.668-.047-1.484-.03-1.59-.098-2.39-.285-3.336-.14-.703-.254-1.06-.512-1.547-.797-1.54-1.867-2.665-3.586-3.735-.293-.188-1.266-.742-2.16-1.254-1.253-.698-1.64-.944-1.695-1.05-.098-.187-.09-1.433.015-2.16.148-1.035.61-3.156.676-3.156.016 0 .05.05.09.13.114.253.622 1.116.954 1.604.69 1.05 1.828 1.95 3.523 2.797 1.852.914 3.78 1.41 5.047 1.28.434-.046.555-.09.63-.225.065-.13.05-.254-.048-.375-.067-.09-.148-.114-.457-.137-.45-.04-.84-.164-1.41-.45-1.712-.87-4.036-3.05-5.317-4.988-.262-.406-.39-.636-.848-1.59-1.036-2.167-2.094-3.27-3.773-3.945-1.24-.483-2.99-.686-4.563-.53z"/></svg>