<svg xmlns="http://www.w3.org/2000/svg" width="65.558" height="58.585" viewBox="0 0 65.558 58.585"><path fill="#FFF" d="M59.194 56.71l-.75-.75 4.35-18.823c2.547 6.523 1.35 14.172-3.6 19.574zm-2.024-1.95l-4.5-4.5.15-.3.52-1.2.678-1.5 6.3-14.4c.523.678.977 1.428 1.352 2.178l-2.773 12.227-.523 2.25-1.204 5.245zm-5.625-5.625l-.3-.375-4.65-4.65 12.525-12.6c0 .074.074.074.074.15l-6.824 15.6-.676 1.5-.15.375zm-5.55 3.453c-.6.227-1.574.45-2.176.45h-6.15l4.2-4.2h7.197l1.875 1.875-4.948 1.876zm-10.5.375H4.143l10.05-3.823c.603-.227 1.575-.45 2.177-.45h23.4l-4.275 4.274zm9.973-7.8l2.1 2.102H43.37l2.098-2.102zm-5.024-7.125l17.55-7.727c.075 0 .075.075.15.075L45.468 43.06l-5.024-5.025zm-5.625-5.7l19.647-4.573c.75.45 1.5.898 2.175 1.426L39.32 36.837l-4.5-4.5zm-1.95-1.952c5.4-4.95 12.976-6.152 19.425-3.602l-18.75 4.353-.676-.75zm26.847-.525c-7.877-7.873-20.627-7.873-28.426 0-.3.303-.3.75 0 1.053l13.126 13.125-3.148 3.227h-24.9c-.75 0-1.95.227-2.7.523l-12.675 4.8c-.3.075-1.125.45-.977 1.2.074.523.524.75 1.274.75h32.773l-3.6 3.602h2.1l3.602-3.602h7.648c.75 0 1.95-.227 2.7-.523l5.624-2.102 6.448 6.448c.3.303.75.303 1.05 0 7.88-7.872 7.88-20.622.08-28.5zm-45.824-9.227c-3.75 0-6.75-3-6.75-6.75s3-6.75 6.75-6.75 6.75 3 6.75 6.75-3.074 6.75-6.75 6.75zm13.05-7.5H22.07c-.075-.602-.15-1.125-.302-1.727l3.3-1.35c.376-.15.603-.603.376-.978-.226-.375-.602-.6-.976-.375l-3.3 1.352c-.302-.524-.603-.977-.978-1.426l3.45-3.45c.3-.3.3-.75 0-1.05-.3-.303-.75-.303-1.05 0l-3.45 3.447c-.45-.375-.9-.676-1.426-.976l1.35-3.3c.15-.375 0-.824-.374-.977-.375-.148-.824 0-.976.375L16.288 6c-.524-.148-1.125-.3-1.727-.3V.75c0-.45-.3-.75-.75-.75-.447 0-.75.3-.75.75v4.875c-.6.074-1.123.15-1.724.3l-1.352-3.3c-.148-.375-.6-.6-.976-.375-.375.15-.602.602-.375.977l1.35 3.3c-.522.3-.975.602-1.425.977l-3.45-3.45c-.3-.3-.75-.3-1.05 0-.3.302-.3.75 0 1.052l3.45 3.45c-.375.448-.676.897-.977 1.425l-3.3-1.35c-.375-.15-.824 0-.976.375-.15.375 0 .824.375.977l3.3 1.352c-.15.524-.3 1.125-.3 1.727H.752c-.45 0-.75.3-.75.75s.3.75.75.75h4.875c.074.6.148 1.125.3 1.726l-3.3 1.352c-.375.148-.602.6-.375.976.148.3.375.45.675.45.075 0 .227 0 .3-.075l3.302-1.35c.3.52.602.974.977 1.424l-3.45 3.45c-.3.3-.3.75 0 1.05.15.148.375.226.524.226.15 0 .377-.075.525-.227l3.45-3.45c.45.375.898.676 1.425.977l-1.352 3.3c-.15.376 0 .825.375.977.074.075.226.075.3.075.3 0 .602-.15.676-.45l1.35-3.3c.523.148 1.125.3 1.726.3v5.024c0 .45.3.75.75.75s.75-.3.75-.75V22.14c.602-.073 1.125-.148 1.727-.3l1.35 3.3c.15.302.376.45.677.45.075 0 .228 0 .302-.074.375-.15.602-.602.375-.977l-1.352-3.303c.524-.3.977-.6 1.426-.976l3.45 3.45c.15.148.376.227.525.227.148 0 .375-.075.523-.227.3-.3.3-.75 0-1.05l-3.45-3.45c.376-.448.677-.897.978-1.425l3.3 1.352c.075.074.227.074.3.074.302 0 .603-.146.677-.447.148-.375 0-.824-.375-.977l-3.3-1.35c.148-.525.3-1.126.3-1.728h4.875c.45 0 .75-.3.75-.75s-.22-.824-.668-.824z"/></svg>